<?xml version="1.0" encoding="UTF-8"?>
<!DOCTYPE svg PUBLIC "-//W3C//DTD SVG 1.1//EN" "http://www.w3.org/Graphics/SVG/1.1/DTD/svg11.dtd">
<svg xmlns="http://www.w3.org/2000/svg" version="1.1" width="1024px" height="1024px" style="shape-rendering:geometricPrecision; text-rendering:geometricPrecision; image-rendering:optimizeQuality; fill-rule:evenodd; clip-rule:evenodd" xmlns:xlink="http://www.w3.org/1999/xlink">
<g><path style="opacity:0.011" fill="#000000" d="M 493.5,277.5 C 500.841,277.334 508.174,277.5 515.5,278C 516.815,279.395 516.481,280.395 514.5,281C 508.833,281.667 503.167,281.667 497.5,281C 495.456,280.502 494.122,279.335 493.5,277.5 Z"/></g>
<g><path style="opacity:0.006" fill="#000000" d="M 487.5,281.5 C 490.167,281.5 492.833,281.5 495.5,281.5C 494.554,285.335 492.221,286.335 488.5,284.5C 487.614,283.675 487.281,282.675 487.5,281.5 Z"/></g>
<g><path style="opacity:0.783" fill="#000000" d="M 542.5,317.5 C 546.182,317.665 549.848,317.499 553.5,317C 555.881,316.777 557.547,315.61 558.5,313.5C 563.58,313.75 568.58,313.25 573.5,312C 574.381,311.292 575.047,310.458 575.5,309.5C 579.182,309.665 582.848,309.499 586.5,309C 588.881,308.777 590.547,307.61 591.5,305.5C 598.088,305.993 604.421,304.993 610.5,302.5C 611.167,302.833 611.833,303.167 612.5,303.5C 613.294,309.783 613.794,316.116 614,322.5C 614.249,325.177 615.249,327.51 617,329.5C 617.667,334.5 617.667,339.5 617,344.5C 608.912,345.317 600.745,345.817 592.5,346C 589.139,346.054 586.139,347.054 583.5,349C 573.796,349.214 564.13,349.88 554.5,351C 553.058,351.377 552.058,352.21 551.5,353.5C 544.159,353.334 536.826,353.5 529.5,354C 529.043,354.414 528.709,354.914 528.5,355.5C 529.036,360.296 530.536,364.963 533,369.5C 533.128,376.76 533.961,383.927 535.5,391C 535.297,393.406 534.297,395.406 532.5,397C 527.167,397.333 521.833,397.667 516.5,398C 505.867,401.455 494.867,402.789 483.5,402C 481.936,394.288 480.77,386.455 480,378.5C 479.581,377.328 478.915,376.328 478,375.5C 477.667,370.833 477.333,366.167 477,361.5C 476.751,358.823 475.751,356.49 474,354.5C 473.667,349.5 473.333,344.5 473,339.5C 471.235,335.311 470.069,330.978 469.5,326.5C 469.667,324.833 469.833,323.167 470,321.5C 472.527,318.597 474.694,315.43 476.5,312C 477.233,310.234 477.567,308.401 477.5,306.5C 480.893,304.974 482.226,302.307 481.5,298.5C 483.017,298.489 484.184,297.823 485,296.5C 485.497,294.19 485.663,291.857 485.5,289.5C 488.721,288.889 491.721,287.722 494.5,286C 501.839,285.285 509.172,284.951 516.5,285C 517.297,288.745 517.797,292.579 518,296.5C 521.102,305.122 522.602,314.122 522.5,323.5C 523.5,323.5 524.5,323.5 525.5,323.5C 525.334,317.824 525.501,312.157 526,306.5C 526.583,304.998 527.416,303.665 528.5,302.5C 529.787,305.709 529.787,308.875 528.5,312C 529.047,312.925 529.713,313.758 530.5,314.5C 534.765,313.561 539.098,313.228 543.5,313.5C 543.567,314.959 543.234,316.292 542.5,317.5 Z M 542.5,317.5 C 542.047,318.458 541.381,319.292 540.5,320C 536.582,321.156 532.582,321.656 528.5,321.5C 528.383,319.516 529.05,317.85 530.5,316.5C 534.429,317.433 538.429,317.766 542.5,317.5 Z"/></g>
<g><path style="opacity:0.013" fill="#000000" d="M 522.5,285.5 C 523.496,285.414 524.329,285.748 525,286.5C 525.95,292.674 525.617,298.674 524,304.5C 523.333,303.833 522.667,303.167 522,302.5C 521.215,296.751 521.382,291.084 522.5,285.5 Z"/></g>
<g><path style="opacity:0.011" fill="#000000" d="M 481.5,298.5 C 480.312,299.684 479.145,299.684 478,298.5C 477.126,295.621 477.46,292.955 479,290.5C 481.023,292.769 481.856,295.436 481.5,298.5 Z"/></g>
<g><path style="opacity:0.011" fill="#000000" d="M 590.5,297.5 C 596.509,297.334 602.509,297.501 608.5,298C 609.833,299 609.833,300 608.5,301C 603.833,301.667 599.167,301.667 594.5,301C 592.456,300.502 591.122,299.335 590.5,297.5 Z"/></g>
<g><path style="opacity:0.01" fill="#000000" d="M 477.5,306.5 C 476.167,306.5 474.833,306.5 473.5,306.5C 473.187,303.753 473.52,301.086 474.5,298.5C 477.172,300.425 478.172,303.092 477.5,306.5 Z"/></g>
<g><path style="opacity:0.011" fill="#000000" d="M 591.5,305.5 C 587.154,305.666 582.821,305.499 578.5,305C 576.998,304.417 575.665,303.584 574.5,302.5C 580.463,301.504 586.463,301.171 592.5,301.5C 592.567,302.959 592.234,304.292 591.5,305.5 Z"/></g>
<g><path style="opacity:0.011" fill="#000000" d="M 469.5,305.5 C 473.298,307.309 474.298,310.142 472.5,314C 471.552,314.483 470.552,314.649 469.5,314.5C 469.5,311.5 469.5,308.5 469.5,305.5 Z"/></g>
<g><path style="opacity:0.011" fill="#000000" d="M 575.5,309.5 C 570.821,309.666 566.155,309.499 561.5,309C 559.998,308.417 558.665,307.584 557.5,306.5C 563.833,305.167 570.167,305.167 576.5,306.5C 575.873,307.417 575.539,308.417 575.5,309.5 Z"/></g>
<g><path style="opacity:0.011" fill="#000000" d="M 618.5,305.5 C 619.75,305.577 620.583,306.244 621,307.5C 621.964,315.665 621.63,323.665 620,331.5C 619.085,330.672 618.419,329.672 618,328.5C 617.353,320.811 617.52,313.144 618.5,305.5 Z"/></g>
<g><path style="opacity:0.011" fill="#000000" d="M 558.5,313.5 C 554.154,313.666 549.821,313.499 545.5,313C 543.998,312.417 542.665,311.584 541.5,310.5C 547.463,309.504 553.463,309.171 559.5,309.5C 559.567,310.959 559.234,312.292 558.5,313.5 Z"/></g>
<g><path style="opacity:0.009" fill="#000000" d="M 465.5,313.5 C 469.392,314.742 470.392,317.242 468.5,321C 467.552,321.483 466.552,321.649 465.5,321.5C 465.5,318.833 465.5,316.167 465.5,313.5 Z"/></g>
<g><path style="opacity:0.006" fill="#000000" d="M 461.5,320.5 C 464.138,321.242 465.471,323.075 465.5,326C 465.007,328.819 463.84,331.319 462,333.5C 461.501,329.179 461.334,324.846 461.5,320.5 Z"/></g>
<g><path style="opacity:0.007" fill="#000000" d="M 623.5,328.5 C 624.8,330.223 625.467,332.39 625.5,335C 625.333,337.167 625.167,339.333 625,341.5C 624.692,342.308 624.192,342.975 623.5,343.5C 622.031,341.808 621.365,339.808 621.5,337.5C 621.879,334.418 622.546,331.418 623.5,328.5 Z"/></g>
<g><path style="opacity:0.009" fill="#000000" d="M 414.5,329.5 C 417.898,329.18 421.232,329.513 424.5,330.5C 423.45,332.873 421.617,333.873 419,333.5C 415.737,334.068 414.237,332.734 414.5,329.5 Z"/></g>
<g><path style="opacity:0.012" fill="#000000" d="M 469.5,360.5 C 468.691,362.292 468.191,364.292 468,366.5C 467.333,367.833 466.667,367.833 466,366.5C 465.024,354.344 465.357,342.344 467,330.5C 467.667,331.167 468.333,331.833 469,332.5C 469.5,341.827 469.666,351.161 469.5,360.5 Z"/></g>
<g><path style="opacity:0.007" fill="#000000" d="M 413.5,337.5 C 407.887,334.911 408.221,333.578 414.5,333.5C 414.567,334.959 414.234,336.292 413.5,337.5 Z"/></g>
<g><path style="opacity:0.592" fill="#000000" d="M 433.5,348.5 C 433.343,349.873 433.51,351.207 434,352.5C 436.564,354.851 438.397,357.685 439.5,361C 441.237,361.612 442.237,360.946 442.5,359C 441.396,357.18 439.896,355.68 438,354.5C 437.077,351.722 437.911,349.722 440.5,348.5C 441.052,350.003 441.052,351.669 440.5,353.5C 441.5,353.5 442.5,353.5 443.5,353.5C 443.167,350.5 444.5,349.167 447.5,349.5C 445.767,351.946 444.933,354.613 445,357.5C 448.167,355.667 450.667,353.167 452.5,350C 454.698,349.627 456.865,349.127 459,348.5C 459.772,348.645 460.439,348.978 461,349.5C 461.333,353.5 461.667,357.5 462,361.5C 465.003,367.39 466.336,373.723 466,380.5C 466.008,383.345 467.175,385.345 469.5,386.5C 469,392.028 469.667,397.362 471.5,402.5C 471.023,403.478 470.357,404.311 469.5,405C 506.122,405.933 542.789,406.266 579.5,406C 580.833,407 580.833,408 579.5,409C 532.163,409.833 484.83,409.667 437.5,408.5C 437.977,407.522 438.643,406.689 439.5,406C 447.833,405.667 456.167,405.333 464.5,405C 458.635,399.37 453.135,393.536 448,387.5C 444.445,390.302 441.112,393.302 438,396.5C 437.293,398.081 436.46,399.581 435.5,401C 432.518,401.498 429.518,401.665 426.5,401.5C 426.649,400.448 426.483,399.448 426,398.5C 422.698,395.774 419.532,392.941 416.5,390C 413.113,388.855 412.113,389.688 413.5,392.5C 407.198,393.193 406.865,391.693 412.5,388C 405.556,381.21 398.223,375.043 390.5,369.5C 389.305,371.297 387.638,372.297 385.5,372.5C 385.5,371.5 385.5,370.5 385.5,369.5C 386.822,369.67 387.989,369.337 389,368.5C 389.497,366.19 389.663,363.857 389.5,361.5C 388.167,361.5 386.833,361.5 385.5,361.5C 385.5,360.167 385.5,358.833 385.5,357.5C 386.5,357.5 387.5,357.5 388.5,357.5C 388.281,358.675 388.614,359.675 389.5,360.5C 392.876,358.779 395.543,356.446 397.5,353.5C 398.552,353.649 399.552,353.483 400.5,353C 404,348.167 408.167,344 413,340.5C 413.483,339.552 413.649,338.552 413.5,337.5C 417.93,337.017 422.097,335.684 426,333.5C 426.5,333.833 427,334.167 427.5,334.5C 425.721,336.193 425.221,338.193 426,340.5C 428.148,341.977 429.482,343.977 430,346.5C 430.816,347.823 431.983,348.489 433.5,348.5 Z"/></g>
<g><path style="opacity:0.011" fill="#000000" d="M 430.5,336.5 C 431.496,336.414 432.329,336.748 433,337.5C 433.495,339.473 433.662,341.473 433.5,343.5C 429.452,342.738 428.452,340.404 430.5,336.5 Z"/></g>
<g><path style="opacity:0.009" fill="#000000" d="M 397.5,353.5 C 394.991,354.888 393.324,354.054 392.5,351C 393.865,349.318 395.365,349.151 397,350.5C 397.494,348.866 397.66,347.199 397.5,345.5C 398.833,345.5 400.167,345.5 401.5,345.5C 401.5,344.167 401.5,342.833 401.5,341.5C 402.833,341.5 404.167,341.5 405.5,341.5C 405.5,340.167 405.5,338.833 405.5,337.5C 407.429,337.231 409.095,337.731 410.5,339C 405.612,343.419 401.278,348.252 397.5,353.5 Z"/></g>
<g><path style="opacity:0.005" fill="#000000" d="M 452.5,341.5 C 455.482,341.104 458.149,341.771 460.5,343.5C 457.519,346.089 454.519,345.922 451.5,343C 452.056,342.617 452.389,342.117 452.5,341.5 Z"/></g>
<g><path style="opacity:0.01" fill="#000000" d="M 433.5,348.5 C 433.022,345.722 434.022,343.722 436.5,342.5C 438.395,346.143 437.395,348.143 433.5,348.5 Z"/></g>
<g><path style="opacity:0.006" fill="#000000" d="M 447.5,349.5 C 446.829,348.153 446.829,346.986 447.5,346C 449.259,345.202 450.926,345.369 452.5,346.5C 451.579,348.756 449.912,349.756 447.5,349.5 Z"/></g>
<g><path style="opacity:0.012" fill="#000000" d="M 584.5,349.5 C 593.173,349.334 601.84,349.5 610.5,350C 612.256,350.202 613.922,350.702 615.5,351.5C 615.291,352.086 614.957,352.586 614.5,353C 603.839,353.5 593.172,353.667 582.5,353.5C 582.527,351.801 583.194,350.467 584.5,349.5 Z"/></g>
<g><path style="opacity:0.012" fill="#000000" d="M 551.5,353.5 C 559.84,353.334 568.173,353.5 576.5,354C 579.451,354.096 582.118,354.929 584.5,356.5C 573.186,357.499 561.853,357.832 550.5,357.5C 550.433,356.041 550.766,354.708 551.5,353.5 Z"/></g>
<g><path style="opacity:0.004" fill="#000000" d="M 389.5,354.5 C 391.465,354.948 391.798,355.948 390.5,357.5C 389.614,356.675 389.281,355.675 389.5,354.5 Z"/></g>
<g><path style="opacity:0.013" fill="#000000" d="M 473.5,381.5 C 472.71,382.609 472.21,383.942 472,385.5C 471.329,386.252 470.496,386.586 469.5,386.5C 469.5,377.833 469.5,369.167 469.5,360.5C 470.302,359.048 470.802,357.382 471,355.5C 471.667,354.167 472.333,354.167 473,355.5C 473.5,364.16 473.666,372.827 473.5,381.5 Z"/></g>
<g><path style="opacity:0.012" fill="#000000" d="M 534.5,356.5 C 536.044,356.703 537.378,357.37 538.5,358.5C 539.607,357.978 540.774,357.645 542,357.5C 545.762,357.814 549.262,358.814 552.5,360.5C 547.814,361.779 543.147,361.779 538.5,360.5C 536.397,362.127 536.064,364.127 537.5,366.5C 537.545,370.344 536.379,371.011 534,368.5C 534.48,365.187 533.98,362.187 532.5,359.5C 533.193,358.482 533.859,357.482 534.5,356.5 Z"/></g>
<g><path style="opacity:0.009" fill="#000000" d="M 381.5,360.5 C 384.05,360.884 385.383,362.384 385.5,365C 385.532,366.971 384.698,368.471 383,369.5C 381.608,366.722 381.108,363.722 381.5,360.5 Z"/></g>
<g><path style="opacity:0.011" fill="#000000" d="M 539.5,368.5 C 540.825,372.276 541.491,376.443 541.5,381C 541.612,385.944 541.112,390.777 540,395.5C 539.085,394.672 538.419,393.672 538,392.5C 537.016,384.362 537.516,376.362 539.5,368.5 Z"/></g>
<g><path style="opacity:0.009" fill="#000000" d="M 389.5,372.5 C 390.552,372.351 391.552,372.517 392.5,373C 394.479,375.909 396.813,378.409 399.5,380.5C 401.795,381.136 403.461,382.469 404.5,384.5C 401.119,386.143 399.119,385.143 398.5,381.5C 396.833,381.5 395.167,381.5 393.5,381.5C 393.5,379.833 393.5,378.167 393.5,376.5C 392.167,376.5 390.833,376.5 389.5,376.5C 389.5,375.167 389.5,373.833 389.5,372.5 Z"/></g>
<g><path style="opacity:0.015" fill="#000000" d="M 473.5,381.5 C 474.322,379.611 475.155,377.611 476,375.5C 476.333,375.833 476.667,376.167 477,376.5C 477.667,384.5 477.667,392.5 477,400.5C 476.29,401.973 475.124,402.64 473.5,402.5C 473.5,395.5 473.5,388.5 473.5,381.5 Z"/></g>
<g><path style="opacity:0.007" fill="#000000" d="M 405.5,385.5 C 407.87,385.983 408.537,387.149 407.5,389C 403.448,389.392 402.781,388.225 405.5,385.5 Z"/></g>
<g><path style="opacity:0.009" fill="#000000" d="M 447.5,391.5 C 449.104,392.287 449.771,393.62 449.5,395.5C 450.552,395.351 451.552,395.517 452.5,396C 453.305,397.972 454.639,399.472 456.5,400.5C 457.833,401.833 457.833,403.167 456.5,404.5C 453.347,402.173 450.513,399.507 448,396.5C 445.363,397.101 444.196,398.767 444.5,401.5C 440,401.781 439.167,400.114 442,396.5C 444.191,395.167 446.024,393.5 447.5,391.5 Z"/></g>
<g><path style="opacity:0.011" fill="#000000" d="M 413.5,392.5 C 416.91,393.613 419.743,395.613 422,398.5C 422.483,399.448 422.649,400.448 422.5,401.5C 420.712,401.785 419.045,401.452 417.5,400.5C 417.833,399.833 418.167,399.167 418.5,398.5C 416.955,397.548 415.288,397.215 413.5,397.5C 413.5,395.833 413.5,394.167 413.5,392.5 Z"/></g>
<g><path style="opacity:0.007" fill="#000000" d="M 426.5,401.5 C 427.234,402.708 427.567,404.041 427.5,405.5C 425.833,405.5 424.167,405.5 422.5,405.5C 422.167,402.5 423.5,401.167 426.5,401.5 Z"/></g>
<g><path style="opacity:0.005" fill="#000000" d="M 437.5,401.5 C 440.23,404.051 439.563,405.384 435.5,405.5C 435.527,403.801 436.194,402.467 437.5,401.5 Z"/></g>
<g><path style="opacity:0.011" fill="#000000" d="M 509.5,401.5 C 515.868,401.17 522.202,401.504 528.5,402.5C 528.291,403.086 527.957,403.586 527.5,404C 521.872,405.705 516.205,405.705 510.5,404C 509.748,403.329 509.414,402.496 509.5,401.5 Z"/></g>
<g><path style="opacity:0.007" fill="#000000" d="M 428.5,405.5 C 431.346,405.03 433.679,405.863 435.5,408C 433.063,409.375 430.397,409.875 427.5,409.5C 427.433,408.041 427.766,406.708 428.5,405.5 Z"/></g>
<g><path style="opacity:0.004" fill="#000000" d="M 582.5,411.5 C 583.833,412.167 583.833,412.167 582.5,411.5 Z"/></g>
<g><path style="opacity:0.829" fill="#000000" d="M 415.5,477.5 C 413.442,474.47 410.442,472.97 406.5,473C 401.981,469.478 397.815,465.645 394,461.5C 393.222,458.816 391.889,456.483 390,454.5C 389.501,450.179 389.334,445.846 389.5,441.5C 405.015,440.369 420.348,440.202 435.5,441C 436.717,436.393 435.383,435.559 431.5,438.5C 417.391,438 403.391,437.167 389.5,436C 390.167,435.333 390.833,434.667 391.5,434C 404.513,433.833 417.513,433.333 430.5,432.5C 429.379,426.886 429.212,421.22 430,415.5C 431.011,414.663 432.178,414.33 433.5,414.5C 433.79,420.561 433.457,426.561 432.5,432.5C 433.289,434.488 434.455,434.821 436,433.5C 436.5,426.842 436.666,420.175 436.5,413.5C 484.776,413.318 533.109,413.318 581.5,413.5C 581.667,424.505 581.5,435.505 581,446.5C 568.125,446.896 555.292,448.063 542.5,450C 537.219,453.091 534.219,457.591 533.5,463.5C 534.822,463.33 535.989,463.663 537,464.5C 537.829,469.864 537.663,475.198 536.5,480.5C 535.194,479.088 534.36,477.421 534,475.5C 533.825,471.789 533.325,468.122 532.5,464.5C 531.201,465.09 530.368,466.09 530,467.5C 529.444,474.91 528.611,482.244 527.5,489.5C 527.833,492.5 528.167,495.5 528.5,498.5C 530.226,492.201 530.726,485.868 530,479.5C 531.011,478.663 532.178,478.33 533.5,478.5C 532.464,484.87 532.464,491.203 533.5,497.5C 541.42,497.185 549.253,497.518 557,498.5C 557.5,510.162 557.667,521.829 557.5,533.5C 517.167,533.5 476.833,533.5 436.5,533.5C 436.168,521.814 436.501,510.148 437.5,498.5C 441.167,497.167 444.833,497.167 448.5,498.5C 449.484,495.572 449.817,492.572 449.5,489.5C 450.978,489.762 452.311,489.429 453.5,488.5C 450.664,484.169 446.664,481.669 441.5,481C 440.833,480.333 440.167,479.667 439.5,479C 431.585,477.599 423.585,477.099 415.5,477.5 Z M 453.5,490.5 C 455.017,490.511 456.184,491.177 457,492.5C 457.851,495.053 457.518,497.386 456,499.5C 453.788,496.998 452.955,493.998 453.5,490.5 Z"/></g>
<g><path style="opacity:0.011" fill="#000000" d="M 586.5,413.5 C 587.496,413.414 588.329,413.748 589,414.5C 589.667,424.5 589.667,434.5 589,444.5C 588.395,446.481 587.395,446.815 586,445.5C 585.192,434.757 585.358,424.09 586.5,413.5 Z"/></g>
<g><path style="opacity:0.004" fill="#000000" d="M 386.5,438.5 C 388.337,438.639 388.67,439.306 387.5,440.5C 386.702,440.043 386.369,439.376 386.5,438.5 Z"/></g>
<g><path style="opacity:0.01" fill="#000000" d="M 382.5,441.5 C 383.496,441.414 384.329,441.748 385,442.5C 385.667,446.167 385.667,449.833 385,453.5C 384.311,454.357 383.478,455.023 382.5,455.5C 381.225,450.784 381.225,446.117 382.5,441.5 Z"/></g>
<g><path style="opacity:0.007" fill="#000000" d="M 551.5,449.5 C 560.173,449.334 568.84,449.5 577.5,450C 579.481,450.605 579.815,451.605 578.5,453C 569.167,453.667 559.833,453.667 550.5,453C 549.833,452.667 549.167,452.333 548.5,452C 549.942,451.623 550.942,450.79 551.5,449.5 Z"/></g>
<g><path style="opacity:0.013" fill="#000000" d="M 541.5,453.5 C 555.712,456.352 555.712,457.685 541.5,457.5C 541.5,459.167 541.5,460.833 541.5,462.5C 539.052,462.915 537.719,461.915 537.5,459.5C 538.432,457.235 539.765,455.235 541.5,453.5 Z"/></g>
<g><path style="opacity:0.009" fill="#000000" d="M 385.5,454.5 C 388.243,454.077 389.576,455.244 389.5,458C 389.505,460.163 388.505,461.663 386.5,462.5C 385.52,459.914 385.187,457.247 385.5,454.5 Z"/></g>
<g><path style="opacity:0.005" fill="#000000" d="M 389.5,462.5 C 393.595,463.326 394.095,464.993 391,467.5C 389.731,466.095 389.231,464.429 389.5,462.5 Z"/></g>
<g><path style="opacity:0.004" fill="#000000" d="M 393.5,466.5 C 396.401,467.178 396.901,468.512 395,470.5C 393.812,469.437 393.312,468.103 393.5,466.5 Z"/></g>
<g><path style="opacity:0.005" fill="#000000" d="M 396.5,470.5 C 397.5,470.5 398.5,470.5 399.5,470.5C 399.5,471.5 399.5,472.5 399.5,473.5C 396.506,473.854 395.506,472.854 396.5,470.5 Z"/></g>
<g><path style="opacity:0.007" fill="#000000" d="M 401.5,473.5 C 404.95,472.756 406.616,474.09 406.5,477.5C 404.5,477.5 402.5,477.5 400.5,477.5C 400.433,476.041 400.766,474.708 401.5,473.5 Z"/></g>
<g><path style="opacity:0.01" fill="#000000" d="M 415.5,477.5 C 416.234,478.708 416.567,480.041 416.5,481.5C 412.774,481.823 409.107,481.489 405.5,480.5C 405.977,479.522 406.643,478.689 407.5,478C 410.146,477.503 412.813,477.336 415.5,477.5 Z"/></g>
<g><path style="opacity:0.01" fill="#000000" d="M 423.5,481.5 C 429.206,481.171 434.872,481.505 440.5,482.5C 440.709,483.086 441.043,483.586 441.5,484C 437.174,485.14 432.674,485.64 428,485.5C 423.833,485.167 419.667,484.833 415.5,484.5C 415.709,483.914 416.043,483.414 416.5,483C 419.036,482.814 421.369,482.314 423.5,481.5 Z"/></g>
<g><path style="opacity:0.011" fill="#000000" d="M 441.5,485.5 C 443.857,485.337 446.19,485.503 448.5,486C 449.841,487.826 449.341,488.993 447,489.5C 445.234,488.767 443.401,488.433 441.5,488.5C 441.5,487.5 441.5,486.5 441.5,485.5 Z"/></g>
<g><path style="opacity:0.005" fill="#000000" d="M 535.5,489.5 C 541.745,489.587 548.079,489.753 554.5,490C 554.957,490.414 555.291,490.914 555.5,491.5C 554.148,492.896 552.481,493.563 550.5,493.5C 548.084,493.125 545.75,492.459 543.5,491.5C 541.235,491.676 538.902,492.01 536.5,492.5C 534.481,491.867 534.147,490.867 535.5,489.5 Z"/></g>
<g><path style="opacity:0.004" fill="#000000" d="M 535.5,493.5 C 537.337,493.639 537.67,494.306 536.5,495.5C 535.702,495.043 535.369,494.376 535.5,493.5 Z"/></g>
<g><path style="opacity:0.004" fill="#000000" d="M 543.5,493.5 C 546.137,495.154 545.803,495.654 542.5,495C 543.056,494.617 543.389,494.117 543.5,493.5 Z"/></g>
<g><path style="opacity:0.012" fill="#000000" d="M 562.5,499.5 C 563.496,499.414 564.329,499.748 565,500.5C 565.667,510.833 565.667,521.167 565,531.5C 563.989,532.337 562.822,532.67 561.5,532.5C 561.19,521.419 561.523,510.419 562.5,499.5 Z"/></g>
<g><path style="opacity:0.011" fill="#000000" d="M 430.5,500.5 C 431.496,500.414 432.329,500.748 433,501.5C 433.667,511.5 433.667,521.5 433,531.5C 432,532.833 431,532.833 430,531.5C 429.192,521.09 429.359,510.757 430.5,500.5 Z"/></g>
<g><path style="opacity:0.004" fill="#000000" d="M 558.5,534.5 C 561.001,534.511 561.168,535.178 559,536.5C 558.536,535.906 558.369,535.239 558.5,534.5 Z"/></g>
<g><path style="opacity:0.017" fill="#000000" d="M 437.5,537.5 C 476.835,537.333 516.168,537.5 555.5,538C 556.833,539 556.833,540 555.5,541C 516.5,541.667 477.5,541.667 438.5,541C 437.663,539.989 437.33,538.822 437.5,537.5 Z"/></g>
<g><path style="opacity:0.006" fill="#000000" d="M 172.5,545.5 C 181.173,545.334 189.84,545.5 198.5,546C 198.957,546.414 199.291,546.914 199.5,547.5C 190.167,548.833 180.833,548.833 171.5,547.5C 171.863,546.817 172.196,546.15 172.5,545.5 Z"/></g>
<g><path style="opacity:0.006" fill="#000000" d="M 211.5,545.5 C 215.555,545.176 219.555,545.509 223.5,546.5C 223.291,547.086 222.957,547.586 222.5,548C 218.459,548.827 214.459,548.66 210.5,547.5C 210.863,546.817 211.196,546.15 211.5,545.5 Z"/></g>
<g><path style="opacity:0.005" fill="#000000" d="M 274.5,545.5 C 278.846,545.334 283.179,545.501 287.5,546C 287.957,546.414 288.291,546.914 288.5,547.5C 284.205,548.661 279.871,548.828 275.5,548C 274.748,547.329 274.414,546.496 274.5,545.5 Z"/></g>
<g><path style="opacity:0.01" fill="#000000" d="M 324.5,545.5 C 331.863,545.169 339.197,545.503 346.5,546.5C 345.91,547.799 344.91,548.632 343.5,549C 338.167,549.667 332.833,549.667 327.5,549C 325.574,548.578 324.574,547.411 324.5,545.5 Z"/></g>
<g><path style="opacity:0.006" fill="#000000" d="M 424.5,545.5 C 439.837,545.333 455.17,545.5 470.5,546C 470.957,546.414 471.291,546.914 471.5,547.5C 455.51,548.666 439.51,548.833 423.5,548C 423.167,547.667 422.833,547.333 422.5,547C 423.416,546.722 424.082,546.222 424.5,545.5 Z"/></g>
<g><path style="opacity:0.006" fill="#000000" d="M 527.5,545.5 C 543.596,545.03 559.596,545.53 575.5,547C 567.325,548.154 558.991,548.654 550.5,548.5C 542.5,548.167 534.5,547.833 526.5,547.5C 526.863,546.817 527.196,546.15 527.5,545.5 Z"/></g>
<g><path style="opacity:0.01" fill="#000000" d="M 599.5,545.5 C 605.868,545.17 612.202,545.504 618.5,546.5C 617.91,547.799 616.91,548.632 615.5,549C 611.167,549.667 606.833,549.667 602.5,549C 600.574,548.578 599.574,547.411 599.5,545.5 Z"/></g>
<g><path style="opacity:0.006" fill="#000000" d="M 649.5,545.5 C 659.19,545.168 668.856,545.502 678.5,546.5C 677.975,547.192 677.308,547.692 676.5,548C 667.167,548.667 657.833,548.667 648.5,548C 648.167,547.667 647.833,547.333 647.5,547C 648.416,546.722 649.082,546.222 649.5,545.5 Z"/></g>
<g><path style="opacity:0.009" fill="#000000" d="M 731.5,545.5 C 739.174,545.334 746.841,545.5 754.5,546C 751.299,548.964 747.465,550.13 743,549.5C 740.5,549.333 738,549.167 735.5,549C 733.456,548.502 732.122,547.335 731.5,545.5 Z"/></g>
<g><path style="opacity:0.006" fill="#000000" d="M 787.5,545.5 C 803.596,545.03 819.596,545.53 835.5,547C 827.325,548.154 818.991,548.654 810.5,548.5C 802.5,548.167 794.5,547.833 786.5,547.5C 786.863,546.817 787.196,546.15 787.5,545.5 Z"/></g>
<g><path style="opacity:0.004" fill="#000000" d="M 224.5,549.5 C 227.293,549.74 227.793,550.74 226,552.5C 224.961,551.756 224.461,550.756 224.5,549.5 Z"/></g>
<g><path style="opacity:0.004" fill="#000000" d="M 271.5,549.5 C 276.796,550.688 276.796,551.522 271.5,552C 270.402,551.23 270.402,550.397 271.5,549.5 Z"/></g>
<g><path style="opacity:0.01" fill="#000000" d="M 324.5,553.5 C 322.143,553.663 319.81,553.497 317.5,553C 316.663,551.989 316.33,550.822 316.5,549.5C 319.5,549.5 322.5,549.5 325.5,549.5C 325.567,550.959 325.234,552.292 324.5,553.5 Z"/></g>
<g><path style="opacity:0.01" fill="#000000" d="M 346.5,553.5 C 345.766,552.292 345.433,550.959 345.5,549.5C 348.898,549.18 352.232,549.513 355.5,550.5C 355.023,551.478 354.357,552.311 353.5,553C 351.19,553.497 348.857,553.663 346.5,553.5 Z"/></g>
<g><path style="opacity:0.009" fill="#000000" d="M 591.5,549.5 C 594.5,549.5 597.5,549.5 600.5,549.5C 600.845,552.488 599.512,553.821 596.5,553.5C 593.623,553.619 591.956,552.286 591.5,549.5 Z"/></g>
<g><path style="opacity:0.009" fill="#000000" d="M 617.5,549.5 C 620.247,549.187 622.914,549.52 625.5,550.5C 623.643,553.506 621.143,554.172 618,552.5C 617.517,551.552 617.351,550.552 617.5,549.5 Z"/></g>
<g><path style="opacity:0.01" fill="#000000" d="M 677.5,549.5 C 681.226,549.177 684.893,549.511 688.5,550.5C 687.271,552.918 685.271,553.918 682.5,553.5C 679.994,553.779 677.994,552.946 676.5,551C 677.056,550.617 677.389,550.117 677.5,549.5 Z"/></g>
<g><path style="opacity:0.009" fill="#000000" d="M 732.5,553.5 C 729.813,553.664 727.146,553.497 724.5,553C 723.663,551.989 723.33,550.822 723.5,549.5C 726.518,549.335 729.518,549.502 732.5,550C 733.171,550.986 733.171,552.153 732.5,553.5 Z"/></g>
<g><path style="opacity:0.009" fill="#000000" d="M 753.5,553.5 C 752.766,552.292 752.433,550.959 752.5,549.5C 755.898,549.18 759.232,549.513 762.5,550.5C 762.023,551.478 761.357,552.311 760.5,553C 758.19,553.497 755.857,553.663 753.5,553.5 Z"/></g>
<g><path style="opacity:0.474" fill="#000000" d="M 170.5,553.5 C 180.749,553.181 190.916,553.514 201,554.5C 201.311,556.556 201.811,558.556 202.5,560.5C 201.415,563.773 201.248,567.106 202,570.5C 202.689,569.643 203.522,568.977 204.5,568.5C 205.666,585.157 205.833,601.823 205,618.5C 204.667,618.167 204.333,617.833 204,617.5C 203.667,621.5 203.333,625.5 203,629.5C 202.5,630 202,630.5 201.5,631C 190.59,631.82 179.757,631.653 169,630.5C 169.015,604.77 169.515,579.103 170.5,553.5 Z M 173.5,571.5 C 174.5,571.5 175.5,571.5 176.5,571.5C 176.177,585.079 176.51,598.579 177.5,612C 175.801,615.29 174.134,615.29 172.5,612C 173.029,610.441 173.696,608.941 174.5,607.5C 173.521,595.551 173.187,583.551 173.5,571.5 Z M 194.5,571.5 C 195.496,571.414 196.329,571.748 197,572.5C 197.812,584.213 197.645,595.88 196.5,607.5C 197.499,610.174 199.166,610.841 201.5,609.5C 202.429,610.689 202.762,612.022 202.5,613.5C 199.938,612.629 197.272,612.629 194.5,613.5C 194.639,599.597 194.639,585.597 194.5,571.5 Z M 201.5,572.5 C 202.629,583.178 202.629,594.178 201.5,605.5C 200.191,594.439 200.191,583.439 201.5,572.5 Z"/></g>
<g><path style="opacity:0.613" fill="#000000" d="M 233.5,568.5 C 232.774,572.307 234.107,574.974 237.5,576.5C 236.658,580.621 237.991,583.621 241.5,585.5C 240.777,589.39 242.11,592.056 245.5,593.5C 245.247,595.827 245.914,597.827 247.5,599.5C 248.192,598.975 248.692,598.308 249,597.5C 249.689,598.357 250.522,599.023 251.5,599.5C 252.747,595.854 254.58,592.521 257,589.5C 257.494,587.866 257.66,586.199 257.5,584.5C 260.738,582.487 262.071,579.487 261.5,575.5C 263.411,575.426 264.578,574.426 265,572.5C 265.495,570.527 265.662,568.527 265.5,566.5C 266.496,566.586 267.329,566.252 268,565.5C 268.493,560.658 270.66,556.824 274.5,554C 277,553.833 279.5,553.667 282,553.5C 284.95,553.568 287.617,554.234 290,555.5C 290.667,580.5 290.667,605.5 290,630.5C 284.197,631.816 278.364,631.816 272.5,630.5C 271.671,625.198 271.171,619.864 271,614.5C 270.13,613.892 269.63,613.059 269.5,612C 270.932,609.307 271.932,606.473 272.5,603.5C 272.167,602.5 271.833,601.5 271.5,600.5C 270.914,600.709 270.414,601.043 270,601.5C 269.503,604.146 269.336,606.813 269.5,609.5C 265.857,610.119 264.857,612.119 266.5,615.5C 267.167,615.167 267.833,614.833 268.5,614.5C 269.662,619.131 269.828,623.798 269,628.5C 268.333,629.833 267.667,629.833 267,628.5C 266.058,624.532 265.225,620.532 264.5,616.5C 262.133,618.95 261.133,621.95 261.5,625.5C 259.616,626.382 258.283,627.882 257.5,630C 252.179,631.871 246.845,631.871 241.5,630C 238.719,626.35 236.886,622.183 236,617.5C 235.292,616.619 234.458,615.953 233.5,615.5C 233.978,612.722 232.978,610.722 230.5,609.5C 230.132,605.044 228.632,601.044 226,597.5C 225.667,608.5 225.333,619.5 225,630.5C 222.589,631.139 220.089,631.473 217.5,631.5C 214.094,631.704 210.928,631.038 208,629.5C 208.506,608.846 208.506,588.18 208,567.5C 207.59,565.332 206.756,563.999 205.5,563.5C 206.937,561.019 208.27,557.852 209.5,554C 214.5,553.333 219.5,553.333 224.5,554C 225.63,556.428 227.13,558.595 229,560.5C 229.29,562.952 229.956,565.285 231,567.5C 231.671,568.252 232.504,568.586 233.5,568.5 Z M 248.5,601.5 C 250.337,601.639 250.67,602.306 249.5,603.5C 248.702,603.043 248.369,602.376 248.5,601.5 Z"/></g>
<g><path style="opacity:0.008" fill="#000000" d="M 316.5,557.5 C 313.722,557.978 311.722,556.978 310.5,554.5C 312.396,553.534 314.396,553.201 316.5,553.5C 316.5,554.833 316.5,556.167 316.5,557.5 Z"/></g>
<g><path style="opacity:0.534" fill="#000000" d="M 324.5,553.5 C 331.833,553.5 339.167,553.5 346.5,553.5C 350.015,556.144 353.681,558.644 357.5,561C 359.134,561.494 360.801,561.66 362.5,561.5C 362.895,557.698 363.895,557.531 365.5,561C 363.685,562.7 362.685,564.866 362.5,567.5C 363.471,570.281 364.304,572.948 365,575.5C 364.282,576.451 363.449,576.617 362.5,576C 361.674,571.849 359.841,571.349 357,574.5C 356.517,575.448 356.351,576.448 356.5,577.5C 359.85,577.335 363.183,577.502 366.5,578C 368.481,578.605 368.815,579.605 367.5,581C 353.925,581.822 340.425,581.656 327,580.5C 326.167,581.333 325.333,582.167 324.5,583C 325.337,584.011 325.67,585.178 325.5,586.5C 323.319,586.716 321.653,585.883 320.5,584C 321.109,581.49 322.442,579.49 324.5,578C 327.957,577.556 331.29,578.056 334.5,579.5C 339.008,577.887 343.674,577.221 348.5,577.5C 347.71,576.206 346.71,575.039 345.5,574C 342.139,573.663 338.806,573.163 335.5,572.5C 328.098,571.813 322.264,574.479 318,580.5C 317.503,582.81 317.337,585.143 317.5,587.5C 318.822,587.33 319.989,587.663 321,588.5C 321.498,591.817 321.665,595.15 321.5,598.5C 320.167,598.5 318.833,598.5 317.5,598.5C 317.357,605.554 320.691,610.388 327.5,613C 332.5,613.667 337.5,613.667 342.5,613C 347.18,611.49 349.847,608.323 350.5,603.5C 350.291,602.914 349.957,602.414 349.5,602C 345.5,602.822 341.5,602.655 337.5,601.5C 337.172,596.125 337.505,590.792 338.5,585.5C 348.913,584.249 359.08,584.249 369,585.5C 369.667,600.167 369.667,614.833 369,629.5C 362.489,630.997 355.989,632.33 349.5,633.5C 349.905,631.35 350.405,629.35 351,627.5C 346.322,629.281 341.822,631.281 337.5,633.5C 334.833,633.5 332.167,633.5 329.5,633.5C 325.903,630.192 321.569,628.859 316.5,629.5C 311.774,624.437 306.774,619.771 301.5,615.5C 301.722,611.158 300.389,607.491 297.5,604.5C 297.5,596.833 297.5,589.167 297.5,581.5C 300.567,578.985 301.901,575.651 301.5,571.5C 303.017,571.489 304.184,570.823 305,569.5C 307.317,567.114 309.151,564.447 310.5,561.5C 313.292,561.378 315.292,560.044 316.5,557.5C 320.39,558.223 323.056,556.89 324.5,553.5 Z M 348.5,577.5 C 350.604,577.201 352.604,577.534 354.5,578.5C 352.147,581.173 350.147,580.839 348.5,577.5 Z M 316.5,589.5 C 317.497,589.47 318.164,589.97 318.5,591C 317.725,593.27 317.392,595.437 317.5,597.5C 315.526,594.967 315.192,592.3 316.5,589.5 Z"/></g>
<g><path style="opacity:0.01" fill="#000000" d="M 354.5,553.5 C 356.527,553.338 358.527,553.505 360.5,554C 361.337,555.011 361.67,556.178 361.5,557.5C 359.473,557.662 357.473,557.495 355.5,557C 354.663,555.989 354.33,554.822 354.5,553.5 Z"/></g>
<g><path style="opacity:0.535" fill="#000000" d="M 473.5,613.5 C 473.5,619.5 473.5,625.5 473.5,631.5C 456.497,631.667 439.497,631.5 422.5,631C 421.838,618.24 421.505,605.407 421.5,592.5C 421.505,579.593 421.838,566.76 422.5,554C 439.407,553.175 456.241,553.342 473,554.5C 473.809,560.749 473.642,566.916 472.5,573C 462.786,573.192 453.12,573.692 443.5,574.5C 442.167,573.833 440.833,573.167 439.5,572.5C 438.511,576.107 438.177,579.774 438.5,583.5C 439.5,583.5 440.5,583.5 441.5,583.5C 439.841,580.466 440.341,577.8 443,575.5C 444.154,576.743 445.488,577.743 447,578.5C 455.137,577.179 463.303,577.179 471.5,578.5C 472.604,579.631 472.271,580.465 470.5,581C 462.587,581.814 454.754,581.647 447,580.5C 446.25,581.126 445.416,581.626 444.5,582C 452.077,583.072 459.743,584.072 467.5,585C 468,585.5 468.5,586 469,586.5C 469.777,591.222 469.61,595.889 468.5,600.5C 458.517,601.332 448.517,601.832 438.5,602C 437.71,606.525 439.21,607.358 443,604.5C 452.423,605.32 461.923,605.82 471.5,606C 472.337,607.011 472.67,608.178 472.5,609.5C 461.448,609.811 450.448,609.478 439.5,608.5C 437.73,609.82 437.397,611.32 438.5,613C 450.162,613.5 461.829,613.667 473.5,613.5 Z"/></g>
<g><path style="opacity:0.525" fill="#000000" d="M 525.5,553.5 C 542.503,553.333 559.503,553.5 576.5,554C 577.656,568.092 577.823,582.258 577,596.5C 576.167,597.5 575.333,598.5 574.5,599.5C 573.255,590.818 573.255,582.151 574.5,573.5C 565.332,573.03 556.332,573.53 547.5,575C 548.333,576.5 549.5,577.667 551,578.5C 557.418,577.357 563.918,577.19 570.5,578C 571.337,579.011 571.67,580.178 571.5,581.5C 564.578,581.812 557.744,581.479 551,580.5C 550.25,581.126 549.416,581.626 548.5,582C 555.658,583.462 562.992,583.962 570.5,583.5C 571.19,589.547 571.19,595.547 570.5,601.5C 561.249,601.818 552.083,601.485 543,600.5C 541.267,602.646 541.1,604.98 542.5,607.5C 541.731,615.138 541.231,622.805 541,630.5C 535.667,631.833 530.333,631.833 525,630.5C 524.194,604.803 524.361,579.137 525.5,553.5 Z M 542.5,572.5 C 547.149,573.511 547.815,575.844 544.5,579.5C 546.023,581.586 545.69,583.252 543.5,584.5C 542.28,584.113 541.613,583.28 541.5,582C 541.737,578.805 542.07,575.638 542.5,572.5 Z"/></g>
<g><path style="opacity:0.006" fill="#000000" d="M 587.5,553.5 C 592.943,553.201 593.61,554.535 589.5,557.5C 587.204,556.632 586.537,555.298 587.5,553.5 Z"/></g>
<g><path style="opacity:0.526" fill="#000000" d="M 625.5,557.5 C 625.369,558.239 625.536,558.906 626,559.5C 630.928,562.09 633.928,566.09 635,571.5C 635.671,572.252 636.504,572.586 637.5,572.5C 637.334,579.175 637.5,585.842 638,592.5C 639,591.833 640,591.167 641,590.5C 641.667,603.5 641.667,616.5 641,629.5C 640,630.833 639,630.833 638,629.5C 637.833,617.486 637.333,605.486 636.5,593.5C 634.58,597.658 631.914,601.324 628.5,604.5C 630.045,605.452 631.712,605.785 633.5,605.5C 633.5,606.833 633.5,608.167 633.5,609.5C 625.249,609.193 617.082,609.859 609,611.5C 600.895,610.093 592.728,609.26 584.5,609C 583.542,607.853 583.875,606.853 585.5,606C 590.519,604.82 590.519,603.32 585.5,601.5C 585.631,598.633 584.297,596.967 581.5,596.5C 579.84,587.084 580.173,577.751 582.5,568.5C 585.623,564.875 588.956,561.375 592.5,558C 595.715,557.726 598.381,556.393 600.5,554C 606.167,553.333 611.833,553.333 617.5,554C 619.569,556.534 622.235,557.701 625.5,557.5 Z M 601.5,589.5 C 599.589,589.426 598.422,588.426 598,586.5C 596.786,581.657 597.953,577.49 601.5,574C 603.134,573.506 604.801,573.34 606.5,573.5C 606.5,574.5 606.5,575.5 606.5,576.5C 609.921,576.238 610.921,577.572 609.5,580.5C 610.391,581.59 611.391,581.59 612.5,580.5C 613.95,581.85 614.617,583.516 614.5,585.5C 611.447,585.681 608.447,585.848 605.5,586C 605.071,582.953 605.071,579.786 605.5,576.5C 604.178,576.33 603.011,576.663 602,577.5C 601.501,581.486 601.334,585.486 601.5,589.5 Z M 612.5,573.5 C 615.95,572.756 617.616,574.09 617.5,577.5C 615.856,577.286 614.356,577.62 613,578.5C 612.506,576.866 612.34,575.199 612.5,573.5 Z M 601.5,589.5 C 605.846,589.666 610.179,589.499 614.5,589C 615.333,588.167 616.167,587.333 617,586.5C 617.14,583.957 617.806,581.623 619,579.5C 620.435,584.199 619.268,588.366 615.5,592C 611.625,593.52 607.625,593.854 603.5,593C 602.177,592.184 601.511,591.017 601.5,589.5 Z"/></g>
<g><path style="opacity:0.007" fill="#000000" d="M 625.5,557.5 C 624.176,554.205 625.509,552.872 629.5,553.5C 629.833,556.5 628.5,557.833 625.5,557.5 Z"/></g>
<g><path style="opacity:0.571" fill="#000000" d="M 697.5,610.5 C 700.292,611.392 701.625,613.392 701.5,616.5C 700.167,616.5 698.833,616.5 697.5,616.5C 696.891,619.878 698.224,621.878 701.5,622.5C 701.5,625.833 701.5,629.167 701.5,632.5C 695.186,631.714 688.853,631.047 682.5,630.5C 682.5,631.5 682.5,632.5 682.5,633.5C 680.897,633.688 679.563,633.188 678.5,632C 681.006,630.484 681.84,628.318 681,625.5C 680.184,624.177 679.017,623.511 677.5,623.5C 677.924,619.998 676.59,617.665 673.5,616.5C 673.625,613.392 672.292,611.392 669.5,610.5C 669.699,605.866 667.699,602.866 663.5,601.5C 663.799,603.973 664.799,606.14 666.5,608C 665.422,609.844 664.755,611.844 664.5,614C 665.616,619.024 665.616,624.024 664.5,629C 664.095,629.945 663.428,630.612 662.5,631C 657.167,631.667 651.833,631.667 646.5,631C 645.509,615.911 645.176,600.745 645.5,585.5C 646.309,583.708 646.809,581.708 647,579.5C 650.467,576.366 649.967,574.032 645.5,572.5C 645.19,566.242 645.524,560.076 646.5,554C 656.833,553.333 667.167,553.333 677.5,554C 682.743,556.056 687.743,558.556 692.5,561.5C 693.279,564.066 694.779,566.066 697,567.5C 698.52,574.485 698.853,581.485 698,588.5C 699,587.833 700,587.167 701,586.5C 701.667,592.833 701.667,599.167 701,605.5C 699.853,606.458 698.853,606.125 698,604.5C 697.667,599.5 697.333,594.5 697,589.5C 694.833,591.667 692.667,593.833 690.5,596C 693.553,597.581 694.22,599.914 692.5,603C 691.552,603.483 690.552,603.649 689.5,603.5C 689.079,606.657 690.245,608.99 693,610.5C 692.734,613.901 694.234,615.567 697.5,615.5C 697.5,613.833 697.5,612.167 697.5,610.5 Z M 669.5,573.5 C 672.518,573.335 675.518,573.502 678.5,574C 680.332,575.489 681.165,577.322 681,579.5C 679.255,580.956 677.422,582.289 675.5,583.5C 672.749,580.945 673.416,579.945 677.5,580.5C 677.513,575.08 676.013,574.413 673,578.5C 670.444,577.781 669.277,576.114 669.5,573.5 Z M 649.5,579.5 C 654.503,581.426 654.503,582.759 649.5,583.5C 649.5,582.167 649.5,580.833 649.5,579.5 Z M 685.5,597.5 C 686.833,597.5 688.167,597.5 689.5,597.5C 689.5,599.167 689.5,600.833 689.5,602.5C 685.932,602.305 684.599,600.639 685.5,597.5 Z M 669.5,610.5 C 672.292,611.392 673.625,613.392 673.5,616.5C 672.167,616.5 670.833,616.5 669.5,616.5C 669.5,614.5 669.5,612.5 669.5,610.5 Z"/></g>
<g><path style="opacity:0.008" fill="#000000" d="M 692.5,557.5 C 690.042,557.773 688.375,556.773 687.5,554.5C 689.045,553.548 690.712,553.215 692.5,553.5C 692.5,554.833 692.5,556.167 692.5,557.5 Z"/></g>
<g><path style="opacity:0.008" fill="#000000" d="M 723.5,557.5 C 721.833,557.5 720.167,557.5 718.5,557.5C 718.461,556.417 718.127,555.417 717.5,554.5C 719.396,553.534 721.396,553.201 723.5,553.5C 723.5,554.833 723.5,556.167 723.5,557.5 Z"/></g>
<g><path style="opacity:0.538" fill="#000000" d="M 732.5,553.5 C 739.5,553.5 746.5,553.5 753.5,553.5C 755.584,556.706 758.584,558.039 762.5,557.5C 763.445,560.987 765.778,562.32 769.5,561.5C 769.5,564.833 769.5,568.167 769.5,571.5C 766.911,572.419 764.911,574.086 763.5,576.5C 766.646,577.289 769.813,577.955 773,578.5C 774.811,579.424 774.645,580.257 772.5,581C 763.149,581.832 753.816,581.665 744.5,580.5C 745.09,579.201 746.09,578.368 747.5,578C 750.146,577.503 752.813,577.336 755.5,577.5C 754.972,576.279 754.305,575.113 753.5,574C 749.961,573.718 746.461,573.218 743,572.5C 739.539,573.218 736.039,573.718 732.5,574C 730.65,576.018 728.65,577.851 726.5,579.5C 725.626,581.747 725.292,584.08 725.5,586.5C 726.609,586.443 727.609,586.11 728.5,585.5C 729.54,589.78 729.706,594.113 729,598.5C 728.29,599.973 727.124,600.64 725.5,600.5C 725.292,602.92 725.626,605.253 726.5,607.5C 733.081,613.26 740.748,615.093 749.5,613C 750.672,612.581 751.672,611.915 752.5,611C 746.003,609.706 739.336,609.039 732.5,609C 729.976,607.117 728.642,604.617 728.5,601.5C 730.288,601.215 731.955,601.548 733.5,602.5C 732.524,604.123 733.024,605.457 735,606.5C 740.468,605.812 745.968,605.145 751.5,604.5C 753.762,605.345 754.429,606.678 753.5,608.5C 754.651,609.731 755.817,609.731 757,608.5C 757.497,606.19 757.663,603.857 757.5,601.5C 753.082,602.446 748.748,602.613 744.5,602C 745.813,596.167 745.813,590.334 744.5,584.5C 754.5,584.5 764.5,584.5 774.5,584.5C 775.601,599.475 775.767,614.475 775,629.5C 769.178,630.996 763.345,632.329 757.5,633.5C 757.5,632.167 757.5,630.833 757.5,629.5C 753.405,629.808 749.405,630.641 745.5,632C 744.944,632.383 744.611,632.883 744.5,633.5C 737.947,631.993 731.281,630.659 724.5,629.5C 723.335,626.41 721.002,625.076 717.5,625.5C 717.833,622.5 716.5,621.167 713.5,621.5C 713.631,618.633 712.297,616.967 709.5,616.5C 709.984,613.202 708.984,610.536 706.5,608.5C 704.247,617.646 702.58,617.313 701.5,607.5C 702.833,607.5 704.167,607.5 705.5,607.5C 704.604,598.146 704.604,588.812 705.5,579.5C 706.458,579.047 707.292,578.381 708,577.5C 709.249,573.129 711.083,569.129 713.5,565.5C 716.5,565.833 717.833,564.5 717.5,561.5C 720.878,562.109 722.878,560.776 723.5,557.5C 727.416,558.039 730.416,556.706 732.5,553.5 Z M 755.5,577.5 C 757.857,577.337 760.19,577.503 762.5,578C 759.87,581.396 757.537,581.229 755.5,577.5 Z M 725.5,586.5 C 725.666,590.514 725.499,594.514 725,598.5C 721.551,594.245 721.718,590.245 725.5,586.5 Z"/></g>
<g><path style="opacity:0.01" fill="#000000" d="M 762.5,557.5 C 761.766,556.292 761.433,554.959 761.5,553.5C 763.857,553.337 766.19,553.503 768.5,554C 769.833,555 769.833,556 768.5,557C 766.527,557.495 764.527,557.662 762.5,557.5 Z"/></g>
<g><path style="opacity:0.553" fill="#000000" d="M 785.5,553.5 C 802.547,553.181 819.547,553.514 836.5,554.5C 837.809,560.722 837.809,566.889 836.5,573C 826.673,573.026 817.006,573.692 807.5,575C 808.155,576.487 809.155,577.653 810.5,578.5C 818.117,577.367 825.784,577.2 833.5,578C 835.481,578.605 835.815,579.605 834.5,581C 826.587,581.814 818.754,581.647 811,580.5C 810.308,581.025 809.808,581.692 809.5,582.5C 816.142,583.331 822.809,583.831 829.5,584C 830.639,589.416 830.806,594.916 830,600.5C 821.197,601.822 812.363,601.822 803.5,600.5C 802.054,601.171 801.388,602.338 801.5,604C 802.515,607.144 802.515,610.311 801.5,613.5C 813.256,612.426 825.089,612.426 837,613.5C 837.167,616.333 837.333,619.167 837.5,622C 837.442,625.276 836.776,628.276 835.5,631C 818.789,631.818 802.122,631.652 785.5,630.5C 784.177,604.768 784.177,579.101 785.5,553.5 Z M 801.5,572.5 C 806.781,572.93 807.781,575.263 804.5,579.5C 806.023,581.586 805.69,583.252 803.5,584.5C 802.119,584 801.453,583 801.5,581.5C 801.886,578.657 801.886,575.657 801.5,572.5 Z"/></g>
<g><path style="opacity:0.004" fill="#000000" d="M 266.5,554.5 C 270.3,554.819 270.466,555.819 267,557.5C 266.517,556.552 266.351,555.552 266.5,554.5 Z"/></g>
<g><path style="opacity:0.012" fill="#000000" d="M 162.5,555.5 C 163.496,555.414 164.329,555.748 165,556.5C 165.667,560.833 165.667,565.167 165,569.5C 164,570.833 163,570.833 162,569.5C 161.227,564.748 161.393,560.081 162.5,555.5 Z"/></g>
<g><path style="opacity:0.005" fill="#000000" d="M 230.5,555.5 C 233.647,556.755 233.98,558.421 231.5,560.5C 229.246,559.286 228.913,557.619 230.5,555.5 Z"/></g>
<g><path style="opacity:0.017" fill="#000000" d="M 297.5,581.5 C 296.115,582.574 294.949,583.907 294,585.5C 293.333,575.833 293.333,566.167 294,556.5C 295,555.167 296,555.167 297,556.5C 297.5,564.827 297.666,573.16 297.5,581.5 Z"/></g>
<g><path style="opacity:0.369" fill="#000000" d="M 414.5,555.5 C 415.496,555.414 416.329,555.748 417,556.5C 417.667,567.5 417.667,578.5 417,589.5C 415.844,588.007 415.01,588.174 414.5,590C 415.078,591.811 415.578,593.645 416,595.5C 416.333,595.167 416.667,594.833 417,594.5C 417.667,606.167 417.667,617.833 417,629.5C 416,630.833 415,630.833 414,629.5C 413.667,619.833 413.333,610.167 413,600.5C 399.913,601.489 386.746,601.823 373.5,601.5C 373.5,595.5 373.5,589.5 373.5,583.5C 386.558,584.473 399.558,584.806 412.5,584.5C 413.191,574.774 413.857,565.107 414.5,555.5 Z"/></g>
<g><path style="opacity:0.012" fill="#000000" d="M 478.5,555.5 C 479.496,555.414 480.329,555.748 481,556.5C 481.667,561.167 481.667,565.833 481,570.5C 479.989,571.337 478.822,571.67 477.5,571.5C 477.218,566.073 477.551,560.74 478.5,555.5 Z"/></g>
<g><path style="opacity:0.015" fill="#000000" d="M 517.5,585.5 C 517.334,575.828 517.5,566.161 518,556.5C 519,555.167 520,555.167 521,556.5C 521.667,567.167 521.667,577.833 521,588.5C 519.961,587.29 518.794,586.29 517.5,585.5 Z"/></g>
<g><path style="opacity:0.013" fill="#000000" d="M 641.5,572.5 C 640.167,572.5 638.833,572.5 637.5,572.5C 637.334,567.489 637.501,562.489 638,557.5C 638.605,555.519 639.605,555.185 641,556.5C 641.499,561.823 641.666,567.156 641.5,572.5 Z"/></g>
<g><path style="opacity:0.019" fill="#000000" d="M 778.5,555.5 C 779.496,555.414 780.329,555.748 781,556.5C 781.667,580.833 781.667,605.167 781,629.5C 780,630.833 779,630.833 778,629.5C 777.186,604.791 777.353,580.124 778.5,555.5 Z"/></g>
<g><path style="opacity:0.008" fill="#000000" d="M 842.5,555.5 C 843.75,555.577 844.583,556.244 845,557.5C 845.667,561.833 845.667,566.167 845,570.5C 844,571.833 843,571.833 842,570.5C 841.274,565.448 841.441,560.448 842.5,555.5 Z"/></g>
<g><path style="opacity:0.012" fill="#000000" d="M 582.5,556.5 C 586.465,559.811 586.298,563.144 582,566.5C 581.253,563.076 581.42,559.743 582.5,556.5 Z"/></g>
<g><path style="opacity:0.009" fill="#000000" d="M 265.5,566.5 C 264.292,567.234 262.959,567.567 261.5,567.5C 261.095,563.952 261.595,560.619 263,557.5C 265.105,560.107 265.938,563.107 265.5,566.5 Z"/></g>
<g><path style="opacity:0.007" fill="#000000" d="M 310.5,561.5 C 307.532,561.626 305.532,563.126 304.5,566C 303.552,566.483 302.552,566.649 301.5,566.5C 301.5,565.167 301.5,563.833 301.5,562.5C 305.5,563.167 307.167,561.5 306.5,557.5C 307.833,557.5 309.167,557.5 310.5,557.5C 310.5,558.833 310.5,560.167 310.5,561.5 Z"/></g>
<g><path style="opacity:0.005" fill="#000000" d="M 632.5,561.5 C 630.524,560.573 630.191,559.24 631.5,557.5C 633.7,558.325 634.034,559.658 632.5,561.5 Z"/></g>
<g><path style="opacity:0.005" fill="#000000" d="M 692.5,557.5 C 695.588,557.197 697.254,558.53 697.5,561.5C 694.633,561.631 692.967,560.297 692.5,557.5 Z"/></g>
<g><path style="opacity:0.006" fill="#000000" d="M 718.5,557.5 C 718.567,558.959 718.234,560.292 717.5,561.5C 715.167,561.833 713.833,563.167 713.5,565.5C 712.167,565.833 710.833,566.167 709.5,566.5C 708.839,562.667 710.172,561.167 713.5,562C 713.616,560.732 713.949,559.398 714.5,558C 715.793,557.51 717.127,557.343 718.5,557.5 Z"/></g>
<g><path style="opacity:0.004" fill="#000000" d="M 770.5,558.5 C 771.995,558.415 772.995,559.081 773.5,560.5C 770.623,561.911 769.623,561.244 770.5,558.5 Z"/></g>
<g><path style="opacity:0.01" fill="#000000" d="M 233.5,568.5 C 233.337,566.143 233.503,563.81 234,561.5C 235.011,560.663 236.178,560.33 237.5,560.5C 237.5,563.167 237.5,565.833 237.5,568.5C 236.167,568.5 234.833,568.5 233.5,568.5 Z"/></g>
<g><path style="opacity:0.004" fill="#000000" d="M 632.5,561.5 C 633.167,561.5 633.5,561.833 633.5,562.5C 633.167,562.167 632.833,561.833 632.5,561.5 Z"/></g>
<g><path style="opacity:0.008" fill="#000000" d="M 699.5,561.5 C 701.28,562.99 701.946,564.99 701.5,567.5C 697.151,566.775 696.484,564.775 699.5,561.5 Z"/></g>
<g><path style="opacity:0.008" fill="#000000" d="M 367.5,562.5 C 368.117,562.611 368.617,562.944 369,563.5C 369.821,566.554 369.655,569.554 368.5,572.5C 364.898,569.541 364.564,566.208 367.5,562.5 Z"/></g>
<g><path style="opacity:0.004" fill="#000000" d="M 633.5,562.5 C 635.337,562.639 635.67,563.306 634.5,564.5C 633.702,564.043 633.369,563.376 633.5,562.5 Z"/></g>
<g><path style="opacity:0.007" fill="#000000" d="M 773.5,563.5 C 775.722,563.559 776.722,564.725 776.5,567C 776.612,568.662 775.946,569.829 774.5,570.5C 773.526,568.257 773.192,565.924 773.5,563.5 Z"/></g>
<g><path style="opacity:0.01" fill="#000000" d="M 261.5,575.5 C 260.167,575.5 258.833,575.5 257.5,575.5C 257.183,572.428 257.516,569.428 258.5,566.5C 259.478,566.977 260.311,567.643 261,568.5C 261.497,570.81 261.663,573.143 261.5,575.5 Z"/></g>
<g><path style="opacity:0.007" fill="#000000" d="M 709.5,566.5 C 709.5,567.833 709.5,569.167 709.5,570.5C 707.41,570.55 706.077,569.55 705.5,567.5C 706.689,566.571 708.022,566.238 709.5,566.5 Z"/></g>
<g><path style="opacity:0.006" fill="#000000" d="M 301.5,571.5 C 300.5,571.5 299.5,571.5 298.5,571.5C 299.5,566.167 300.5,566.167 301.5,571.5 Z"/></g>
<g><path style="opacity:0.01" fill="#000000" d="M 237.5,576.5 C 237.337,574.143 237.503,571.81 238,569.5C 239.011,568.663 240.178,568.33 241.5,568.5C 241.5,571.167 241.5,573.833 241.5,576.5C 240.167,576.5 238.833,576.5 237.5,576.5 Z"/></g>
<g><path style="opacity:0.019" fill="#000000" d="M 705.5,579.5 C 703.827,580.343 702.66,581.676 702,583.5C 701.501,578.511 701.334,573.511 701.5,568.5C 702.822,568.33 703.989,568.663 705,569.5C 705.498,572.817 705.665,576.15 705.5,579.5 Z"/></g>
<g><path style="opacity:0.015" fill="#000000" d="M 645.5,572.5 C 645.5,576.833 645.5,581.167 645.5,585.5C 644.206,586.29 643.039,587.29 642,588.5C 641.501,583.177 641.334,577.844 641.5,572.5C 642.964,571.595 644.298,571.595 645.5,572.5 Z"/></g>
<g><path style="opacity:0.008" fill="#000000" d="M 769.5,571.5 C 770.833,571.5 772.167,571.5 773.5,571.5C 773.5,572.833 773.5,574.167 773.5,575.5C 772.167,575.5 770.833,575.5 769.5,575.5C 769.5,574.167 769.5,572.833 769.5,571.5 Z"/></g>
<g><path style="opacity:0.004" fill="#000000" d="M 333.5,574.5 C 338.67,576.129 338.67,576.962 333.5,577C 332.402,576.23 332.402,575.397 333.5,574.5 Z"/></g>
<g><path style="opacity:0.004" fill="#000000" d="M 741.5,574.5 C 746.67,576.129 746.67,576.962 741.5,577C 740.402,576.23 740.402,575.397 741.5,574.5 Z"/></g>
<g><path style="opacity:0.01" fill="#000000" d="M 257.5,584.5 C 256.167,584.5 254.833,584.5 253.5,584.5C 253.183,581.428 253.516,578.428 254.5,575.5C 255.478,575.977 256.311,576.643 257,577.5C 257.497,579.81 257.663,582.143 257.5,584.5 Z"/></g>
<g><path style="opacity:0.011" fill="#000000" d="M 241.5,585.5 C 241.336,582.813 241.503,580.146 242,577.5C 243.011,576.663 244.178,576.33 245.5,576.5C 245.5,579.5 245.5,582.5 245.5,585.5C 244.167,585.5 242.833,585.5 241.5,585.5 Z"/></g>
<g><path style="opacity:0.015" fill="#000000" d="M 375.5,577.5 C 387.171,577.333 398.838,577.5 410.5,578C 411.833,579 411.833,580 410.5,581C 398.833,581.667 387.167,581.667 375.5,581C 374.316,579.855 374.316,578.688 375.5,577.5 Z"/></g>
<g><path style="opacity:0.015" fill="#000000" d="M 478.5,577.5 C 490.518,577.168 502.518,577.501 514.5,578.5C 514.709,579.086 515.043,579.586 515.5,580C 503.323,581.644 490.989,581.977 478.5,581C 477.316,579.855 477.316,578.688 478.5,577.5 Z"/></g>
<g><path style="opacity:0.01" fill="#000000" d="M 728.5,585.5 C 728.822,582.694 729.822,580.194 731.5,578C 735.682,577.389 739.682,578.056 743.5,580C 740.782,581.768 737.949,581.934 735,580.5C 732.684,581.522 732.184,583.022 733.5,585C 733,585.5 732.5,586 732,586.5C 730.989,585.663 729.822,585.33 728.5,585.5 Z"/></g>
<g><path style="opacity:0.004" fill="#000000" d="M 744.5,584.5 C 743.833,583.167 743.833,583.167 744.5,584.5 Z"/></g>
<g><path style="opacity:0.005" fill="#000000" d="M 470.5,584.5 C 471.75,584.577 472.583,585.244 473,586.5C 473.928,591.02 473.595,595.354 472,599.5C 471.362,598.391 470.862,597.225 470.5,596C 471.789,592.155 471.789,588.322 470.5,584.5 Z"/></g>
<g><path style="opacity:0.424" fill="#000000" d="M 517.5,585.5 C 517.173,590.214 517.507,594.88 518.5,599.5C 519.333,598.5 520.167,597.5 521,596.5C 521.975,607.991 521.642,619.324 520,630.5C 519.333,629.833 518.667,629.167 518,628.5C 517.832,619.149 517.332,609.816 516.5,600.5C 503.212,601.648 489.879,601.815 476.5,601C 475.167,595.667 475.167,590.333 476.5,585C 490.242,584.186 503.908,584.353 517.5,585.5 Z"/></g>
<g><path style="opacity:0.01" fill="#000000" d="M 834.5,584.5 C 835.75,584.577 836.583,585.244 837,586.5C 837.667,590.833 837.667,595.167 837,599.5C 836,600.833 835,600.833 834,599.5C 833.222,594.416 833.389,589.416 834.5,584.5 Z"/></g>
<g><path style="opacity:0.008" fill="#000000" d="M 250.5,585.5 C 251.5,585.5 252.5,585.5 253.5,585.5C 253.5,587.833 253.5,590.167 253.5,592.5C 252.5,592.5 251.5,592.5 250.5,592.5C 250.5,590.167 250.5,587.833 250.5,585.5 Z"/></g>
<g><path style="opacity:0.012" fill="#000000" d="M 738.5,585.5 C 739.496,585.414 740.329,585.748 741,586.5C 741.667,591.167 741.667,595.833 741,600.5C 740,601.833 739,601.833 738,600.5C 737.222,595.416 737.389,590.416 738.5,585.5 Z"/></g>
<g><path style="opacity:0.009" fill="#000000" d="M 245.5,593.5 C 245.338,591.473 245.505,589.473 246,587.5C 246.414,587.043 246.914,586.709 247.5,586.5C 249.054,588.933 249.72,591.6 249.5,594.5C 248.041,594.567 246.708,594.234 245.5,593.5 Z"/></g>
<g><path style="opacity:0.007" fill="#000000" d="M 330.5,586.5 C 331.496,586.414 332.329,586.748 333,587.5C 333.667,591.5 333.667,595.5 333,599.5C 332,600.833 331,600.833 330,599.5C 329.232,595.08 329.398,590.747 330.5,586.5 Z"/></g>
<g><path style="opacity:0.004" fill="#000000" d="M 324.5,588.5 C 325.573,589.251 325.74,590.251 325,591.5C 324.517,590.552 324.351,589.552 324.5,588.5 Z"/></g>
<g><path style="opacity:0.004" fill="#000000" d="M 324.5,594.5 C 325.782,595.708 325.782,597.042 324.5,598.5C 323.374,597.192 323.374,595.858 324.5,594.5 Z"/></g>
<g><path style="opacity:0.008" fill="#000000" d="M 581.5,596.5 C 581.773,598.958 580.773,600.625 578.5,601.5C 576.748,598.167 577.748,596.501 581.5,596.5 Z"/></g>
<g><path style="opacity:0.019" fill="#000000" d="M 323.5,599.5 C 324.973,601.583 326.14,603.916 327,606.5C 333.41,605.522 339.91,605.189 346.5,605.5C 346.67,606.822 346.337,607.989 345.5,609C 338.833,609.667 332.167,609.667 325.5,609C 323.349,607.595 321.682,605.761 320.5,603.5C 321.524,602.148 322.524,600.815 323.5,599.5 Z"/></g>
<g><path style="opacity:0.018" fill="#000000" d="M 297.5,604.5 C 297.666,612.507 297.5,620.507 297,628.5C 295.989,629.337 294.822,629.67 293.5,629.5C 293.334,619.828 293.5,610.161 294,600.5C 294.949,602.093 296.115,603.426 297.5,604.5 Z"/></g>
<g><path style="opacity:0.005" fill="#000000" d="M 634.5,600.5 C 637.14,601.794 637.14,603.127 634.5,604.5C 633.374,603.192 633.374,601.858 634.5,600.5 Z"/></g>
<g><path style="opacity:0.006" fill="#000000" d="M 585.5,601.5 C 585.833,604.5 584.5,605.833 581.5,605.5C 581.5,604.167 581.5,602.833 581.5,601.5C 582.833,601.5 584.167,601.5 585.5,601.5 Z"/></g>
<g><path style="opacity:0.012" fill="#000000" d="M 374.5,604.5 C 386.455,605.293 398.455,605.793 410.5,606C 411.833,607 411.833,608 410.5,609C 399.923,609.819 389.423,609.652 379,608.5C 377.842,608.998 377.009,609.831 376.5,611C 377.597,616.46 377.764,621.96 377,627.5C 376.586,627.957 376.086,628.291 375.5,628.5C 374.8,621.475 374.133,614.475 373.5,607.5C 374.127,606.583 374.461,605.583 374.5,604.5 Z"/></g>
<g><path style="opacity:0.016" fill="#000000" d="M 546.5,604.5 C 548.17,604.751 549.67,605.418 551,606.5C 557.076,605.524 563.242,605.19 569.5,605.5C 569.67,606.822 569.337,607.989 568.5,609C 561.994,609.396 555.66,609.563 549.5,609.5C 549.569,615.993 549.402,622.66 549,629.5C 548,630.833 547,630.833 546,629.5C 545.8,622.117 545.3,614.784 544.5,607.5C 545.193,606.482 545.859,605.482 546.5,604.5 Z"/></g>
<g><path style="opacity:0.009" fill="#000000" d="M 697.5,610.5 C 693.929,610.592 692.762,608.926 694,605.5C 695,604.167 696,604.167 697,605.5C 697.494,607.134 697.66,608.801 697.5,610.5 Z"/></g>
<g><path style="opacity:0.026" fill="#000000" d="M 806.5,604.5 C 816.12,605.283 825.787,605.783 835.5,606C 836.833,607 836.833,608 835.5,609C 826.119,609.193 816.786,609.693 807.5,610.5C 804.025,608.916 803.692,606.916 806.5,604.5 Z"/></g>
<g><path style="opacity:0.014" fill="#000000" d="M 477.5,605.5 C 489.838,605.333 502.171,605.5 514.5,606C 515.833,607 515.833,608 514.5,609C 502.153,609.833 489.82,609.666 477.5,608.5C 476.209,607.473 476.209,606.473 477.5,605.5 Z"/></g>
<g><path style="opacity:0.004" fill="#000000" d="M 473.5,613.5 C 473.5,612.5 473.5,611.5 473.5,610.5C 474.5,610.5 475.5,610.5 476.5,610.5C 476.5,611.5 476.5,612.5 476.5,613.5C 475.5,613.5 474.5,613.5 473.5,613.5 Z"/></g>
<g><path style="opacity:0.011" fill="#000000" d="M 669.5,610.5 C 669.5,612.5 669.5,614.5 669.5,616.5C 666.887,618.021 665.554,617.188 665.5,614C 665.424,611.244 666.757,610.077 669.5,610.5 Z"/></g>
<g><path style="opacity:0.02" fill="#000000" d="M 233.5,615.5 C 233.666,619.514 233.499,623.514 233,627.5C 232.29,628.973 231.124,629.64 229.5,629.5C 229.334,623.491 229.501,617.491 230,611.5C 230.66,613.324 231.827,614.657 233.5,615.5 Z"/></g>
<g><path style="opacity:0.527" fill="#000000" d="M 582.5,613.5 C 599.833,613.5 617.167,613.5 634.5,613.5C 634.5,619.5 634.5,625.5 634.5,631.5C 617.163,631.667 599.83,631.5 582.5,631C 581.187,625.167 581.187,619.334 582.5,613.5 Z"/></g>
<g><path style="opacity:0.009" fill="#000000" d="M 842.5,613.5 C 843.496,613.414 844.329,613.748 845,614.5C 845.667,619.167 845.667,623.833 845,628.5C 844,629.833 843,629.833 842,628.5C 841.222,623.416 841.389,618.416 842.5,613.5 Z"/></g>
<g><path style="opacity:0.013" fill="#000000" d="M 477.5,614.5 C 478.822,614.33 479.989,614.663 481,615.5C 481.667,619.833 481.667,624.167 481,628.5C 479.989,629.337 478.822,629.67 477.5,629.5C 477.5,624.5 477.5,619.5 477.5,614.5 Z"/></g>
<g><path style="opacity:0.008" fill="#000000" d="M 574.5,614.5 C 575.496,614.414 576.329,614.748 577,615.5C 577.667,619.833 577.667,624.167 577,628.5C 576,629.833 575,629.833 574,628.5C 573.227,623.748 573.393,619.081 574.5,614.5 Z"/></g>
<g><path style="opacity:0.011" fill="#000000" d="M 162.5,615.5 C 163.496,615.414 164.329,615.748 165,616.5C 165.499,620.821 165.666,625.154 165.5,629.5C 164.178,629.67 163.011,629.337 162,628.5C 161.232,624.08 161.398,619.747 162.5,615.5 Z"/></g>
<g><path style="opacity:0.006" fill="#000000" d="M 301.5,615.5 C 301.762,616.978 301.429,618.311 300.5,619.5C 298.889,618.68 298.222,617.346 298.5,615.5C 299.5,615.5 300.5,615.5 301.5,615.5 Z"/></g>
<g><path style="opacity:0.006" fill="#000000" d="M 709.5,616.5 C 709.5,617.833 709.5,619.167 709.5,620.5C 707.436,620.238 706.103,619.071 705.5,617C 706.564,615.489 707.897,615.323 709.5,616.5 Z"/></g>
<g><path style="opacity:0.011" fill="#000000" d="M 669.5,616.5 C 670.833,616.5 672.167,616.5 673.5,616.5C 673.936,619.364 673.103,621.697 671,623.5C 669.648,621.406 669.148,619.073 669.5,616.5 Z"/></g>
<g><path style="opacity:0.008" fill="#000000" d="M 701.5,622.5 C 701.5,620.833 701.5,619.167 701.5,617.5C 704.47,617.746 705.803,619.412 705.5,622.5C 704.167,622.5 702.833,622.5 701.5,622.5 Z"/></g>
<g><path style="opacity:0.008" fill="#000000" d="M 301.5,620.5 C 302.552,620.351 303.552,620.517 304.5,621C 305.667,623.5 307.5,625.333 310,626.5C 310.483,627.448 310.649,628.448 310.5,629.5C 309.167,629.5 307.833,629.5 306.5,629.5C 307.167,625.5 305.5,623.833 301.5,624.5C 301.5,623.167 301.5,621.833 301.5,620.5 Z"/></g>
<g><path style="opacity:0.006" fill="#000000" d="M 709.5,620.5 C 710.833,620.833 712.167,621.167 713.5,621.5C 713.833,622.833 714.167,624.167 714.5,625.5C 713.292,624.766 711.959,624.433 710.5,624.5C 710.567,623.041 710.234,621.708 709.5,620.5 Z"/></g>
<g><path style="opacity:0.004" fill="#000000" d="M 666.5,622.5 C 667.693,622.97 668.36,623.97 668.5,625.5C 668.333,626.5 668.167,627.5 668,628.5C 666.872,626.655 666.372,624.655 666.5,622.5 Z"/></g>
<g><path style="opacity:0.009" fill="#000000" d="M 677.5,623.5 C 677.5,625.5 677.5,627.5 677.5,629.5C 673.65,629.299 672.65,627.466 674.5,624C 675.448,623.517 676.448,623.351 677.5,623.5 Z"/></g>
<g><path style="opacity:0.006" fill="#000000" d="M 706.5,623.5 C 708.722,623.559 709.722,624.725 709.5,627C 708.167,631.667 706.833,631.667 705.5,627C 705.648,625.744 705.982,624.577 706.5,623.5 Z"/></g>
<g><path style="opacity:0.007" fill="#000000" d="M 261.5,625.5 C 262.397,624.402 263.23,624.402 264,625.5C 264.49,626.793 264.657,628.127 264.5,629.5C 263.5,629.5 262.5,629.5 261.5,629.5C 261.5,628.167 261.5,626.833 261.5,625.5 Z"/></g>
<g><path style="opacity:0.005" fill="#000000" d="M 235.5,625.5 C 237.104,626.287 237.771,627.62 237.5,629.5C 236.5,629.5 235.5,629.5 234.5,629.5C 234.433,628.041 234.766,626.708 235.5,625.5 Z"/></g>
<g><path style="opacity:0.006" fill="#000000" d="M 714.5,625.5 C 715.5,625.5 716.5,625.5 717.5,625.5C 718.234,626.708 718.567,628.041 718.5,629.5C 714.529,630.204 713.195,628.871 714.5,625.5 Z"/></g>
<g><path style="opacity:0.008" fill="#000000" d="M 316.5,629.5 C 316.5,630.833 316.5,632.167 316.5,633.5C 314.396,633.799 312.396,633.466 310.5,632.5C 311.722,630.022 313.722,629.022 316.5,629.5 Z"/></g>
<g><path style="opacity:0.01" fill="#000000" d="M 724.5,629.5 C 724.5,630.833 724.5,632.167 724.5,633.5C 722.5,633.5 720.5,633.5 718.5,633.5C 718.759,629.932 720.759,628.599 724.5,629.5 Z"/></g>
<g><path style="opacity:0.01" fill="#000000" d="M 170.5,633.5 C 180.506,633.334 190.506,633.5 200.5,634C 201.833,635 201.833,636 200.5,637C 190.5,637.667 180.5,637.667 170.5,637C 169.316,635.855 169.316,634.688 170.5,633.5 Z"/></g>
<g><path style="opacity:0.008" fill="#000000" d="M 210.5,633.5 C 214.846,633.334 219.179,633.501 223.5,634C 224.833,635 224.833,636 223.5,637C 219.167,637.667 214.833,637.667 210.5,637C 209.316,635.855 209.316,634.688 210.5,633.5 Z"/></g>
<g><path style="opacity:0.009" fill="#000000" d="M 242.5,633.5 C 247.179,633.334 251.845,633.501 256.5,634C 257.337,635.011 257.67,636.178 257.5,637.5C 252.167,637.5 246.833,637.5 241.5,637.5C 241.433,636.041 241.766,634.708 242.5,633.5 Z"/></g>
<g><path style="opacity:0.009" fill="#000000" d="M 274.5,633.5 C 278.846,633.334 283.179,633.501 287.5,634C 288.833,635 288.833,636 287.5,637C 283.167,637.667 278.833,637.667 274.5,637C 273.316,635.855 273.316,634.688 274.5,633.5 Z"/></g>
<g><path style="opacity:0.011" fill="#000000" d="M 329.5,633.5 C 330.234,634.708 330.567,636.041 330.5,637.5C 325.786,637.827 321.12,637.493 316.5,636.5C 316.977,635.522 317.643,634.689 318.5,634C 322.152,633.501 325.818,633.335 329.5,633.5 Z"/></g>
<g><path style="opacity:0.01" fill="#000000" d="M 337.5,633.5 C 341.182,633.335 344.848,633.501 348.5,634C 349.337,635.011 349.67,636.178 349.5,637.5C 345.486,637.666 341.486,637.499 337.5,637C 336.316,635.855 336.316,634.688 337.5,633.5 Z"/></g>
<g><path style="opacity:0.008" fill="#000000" d="M 355.5,633.5 C 358.85,633.335 362.183,633.502 365.5,634C 366.815,635.395 366.481,636.395 364.5,637C 361.183,637.498 357.85,637.665 354.5,637.5C 354.433,636.041 354.766,634.708 355.5,633.5 Z"/></g>
<g><path style="opacity:0.01" fill="#000000" d="M 423.5,633.5 C 439.988,633.016 456.322,633.516 472.5,635C 471.833,635.667 471.167,636.333 470.5,637C 455.167,637.667 439.833,637.667 424.5,637C 422.627,636.047 422.294,634.88 423.5,633.5 Z"/></g>
<g><path style="opacity:0.009" fill="#000000" d="M 527.5,633.5 C 531.514,633.334 535.514,633.501 539.5,634C 540.833,635 540.833,636 539.5,637C 535.5,637.667 531.5,637.667 527.5,637C 526.316,635.855 526.316,634.688 527.5,633.5 Z"/></g>
<g><path style="opacity:0.01" fill="#000000" d="M 584.5,633.5 C 600.17,633.333 615.837,633.5 631.5,634C 632.833,635 632.833,636 631.5,637C 615.833,637.667 600.167,637.667 584.5,637C 583.316,635.855 583.316,634.688 584.5,633.5 Z"/></g>
<g><path style="opacity:0.008" fill="#000000" d="M 648.5,633.5 C 652.514,633.334 656.514,633.501 660.5,634C 663.167,635 663.167,636 660.5,637C 656.5,637.667 652.5,637.667 648.5,637C 646.069,635.908 646.069,634.741 648.5,633.5 Z"/></g>
<g><path style="opacity:0.009" fill="#000000" d="M 684.5,633.5 C 688.846,633.334 693.179,633.501 697.5,634C 698.815,635.395 698.481,636.395 696.5,637C 691.798,637.828 687.131,637.662 682.5,636.5C 683.193,635.482 683.859,634.482 684.5,633.5 Z"/></g>
<g><path style="opacity:0.01" fill="#000000" d="M 725.5,633.5 C 729.182,633.335 732.848,633.501 736.5,634C 737.973,634.71 738.64,635.876 738.5,637.5C 733.786,637.827 729.12,637.493 724.5,636.5C 725.127,635.583 725.461,634.583 725.5,633.5 Z"/></g>
<g><path style="opacity:0.011" fill="#000000" d="M 744.5,633.5 C 748.514,633.334 752.514,633.501 756.5,634C 757.337,635.011 757.67,636.178 757.5,637.5C 752.833,637.5 748.167,637.5 743.5,637.5C 743.433,636.041 743.766,634.708 744.5,633.5 Z"/></g>
<g><path style="opacity:0.008" fill="#000000" d="M 762.5,633.5 C 765.85,633.335 769.183,633.502 772.5,634C 773.833,635 773.833,636 772.5,637C 768.848,637.499 765.182,637.665 761.5,637.5C 761.433,636.041 761.766,634.708 762.5,633.5 Z"/></g>
<g><path style="opacity:0.01" fill="#000000" d="M 786.5,633.5 C 802.503,633.333 818.503,633.5 834.5,634C 835.833,635 835.833,636 834.5,637C 818.5,637.667 802.5,637.667 786.5,637C 785.316,635.855 785.316,634.688 786.5,633.5 Z"/></g>
<g><path style="opacity:0.005" fill="#000000" d="M 330.5,638.5 C 332.75,638.181 334.75,638.681 336.5,640C 333.985,641.713 331.318,641.88 328.5,640.5C 329.243,639.818 329.909,639.151 330.5,638.5 Z"/></g>
<g><path style="opacity:0.004" fill="#000000" d="M 738.5,638.5 C 741.157,638.162 743.49,638.829 745.5,640.5C 742.5,641.833 739.5,641.833 736.5,640.5C 737.243,639.818 737.909,639.151 738.5,638.5 Z"/></g>
<g><path style="opacity:0.004" fill="#000000" d="M 696.5,640.5 C 696.897,639.475 697.563,639.308 698.5,640C 697.906,640.464 697.239,640.631 696.5,640.5 Z"/></g>
<g><path style="opacity:0.008" fill="#000000" d="M 337.5,641.5 C 342.098,641.852 346.765,642.018 351.5,642C 352.973,642.71 353.64,643.876 353.5,645.5C 347.132,645.83 340.798,645.496 334.5,644.5C 335.34,643.265 336.34,642.265 337.5,641.5 Z"/></g>
<g><path style="opacity:0.01" fill="#000000" d="M 359.5,641.5 C 365.401,642.364 371.401,642.364 377.5,641.5C 377.67,642.822 377.337,643.989 376.5,645C 370.833,645.667 365.167,645.667 359.5,645C 358.316,643.855 358.316,642.688 359.5,641.5 Z"/></g>
<g><path style="opacity:0.011" fill="#000000" d="M 386.5,641.5 C 392.833,641.5 399.167,641.5 405.5,641.5C 405.67,642.822 405.337,643.989 404.5,645C 398.5,645.667 392.5,645.667 386.5,645C 385.316,643.855 385.316,642.688 386.5,641.5 Z"/></g>
<g><path style="opacity:0.01" fill="#000000" d="M 414.5,641.5 C 419.546,642.095 424.546,642.095 429.5,641.5C 432.189,641.545 433.523,642.879 433.5,645.5C 427.491,645.666 421.491,645.499 415.5,645C 414.663,643.989 414.33,642.822 414.5,641.5 Z"/></g>
<g><path style="opacity:0.009" fill="#000000" d="M 440.5,641.5 C 444.232,642.077 447.898,642.077 451.5,641.5C 454.359,641.899 457.026,642.733 459.5,644C 452.677,645.46 445.677,645.96 438.5,645.5C 438.527,643.801 439.194,642.467 440.5,641.5 Z"/></g>
<g><path style="opacity:0.006" fill="#000000" d="M 470.5,641.5 C 472.977,641.051 474.977,641.717 476.5,643.5C 476.291,644.086 475.957,644.586 475.5,645C 472.773,645.818 470.106,645.652 467.5,644.5C 468.34,643.265 469.34,642.265 470.5,641.5 Z"/></g>
<g><path style="opacity:0.007" fill="#000000" d="M 483.5,641.5 C 486.665,640.964 489.331,641.797 491.5,644C 489.045,645.54 486.379,645.874 483.5,645C 482.316,643.855 482.316,642.688 483.5,641.5 Z"/></g>
<g><path style="opacity:0.01" fill="#000000" d="M 495.5,641.5 C 502.014,641.045 508.347,641.545 514.5,643C 513.833,643.667 513.167,644.333 512.5,645C 506.804,645.83 501.137,645.663 495.5,644.5C 494.209,643.473 494.209,642.473 495.5,641.5 Z"/></g>
<g><path style="opacity:0.006" fill="#000000" d="M 522.5,641.5 C 526.241,640.599 528.241,641.932 528.5,645.5C 526.473,645.662 524.473,645.495 522.5,645C 521.316,643.855 521.316,642.688 522.5,641.5 Z"/></g>
<g><path style="opacity:0.006" fill="#000000" d="M 539.5,641.5 C 542.346,641.03 544.679,641.863 546.5,644C 544.386,645.518 542.053,645.851 539.5,645C 538.316,643.855 538.316,642.688 539.5,641.5 Z"/></g>
<g><path style="opacity:0.01" fill="#000000" d="M 551.5,641.5 C 557.842,641.334 564.175,641.5 570.5,642C 571.815,643.395 571.481,644.395 569.5,645C 563.5,645.667 557.5,645.667 551.5,645C 550.316,643.855 550.316,642.688 551.5,641.5 Z"/></g>
<g><path style="opacity:0.006" fill="#000000" d="M 587.5,641.5 C 590.588,641.197 592.254,642.53 592.5,645.5C 590.473,645.662 588.473,645.495 586.5,645C 586.043,644.586 585.709,644.086 585.5,643.5C 586.243,642.818 586.909,642.151 587.5,641.5 Z"/></g>
<g><path style="opacity:0.01" fill="#000000" d="M 599.5,641.5 C 604.78,642.033 610.114,642.199 615.5,642C 616.833,643 616.833,644 615.5,645C 609.472,645.83 603.472,645.664 597.5,644.5C 598.193,643.482 598.859,642.482 599.5,641.5 Z"/></g>
<g><path style="opacity:0.008" fill="#000000" d="M 627.5,641.5 C 632.511,641.334 637.511,641.501 642.5,642C 644.481,642.605 644.815,643.605 643.5,645C 637.167,645.667 630.833,645.667 624.5,645C 624.167,644.667 623.833,644.333 623.5,644C 624.858,643.066 626.192,642.232 627.5,641.5 Z"/></g>
<g><path style="opacity:0.009" fill="#000000" d="M 655.5,641.5 C 657.527,641.338 659.527,641.505 661.5,642C 662.833,643 662.833,644 661.5,645C 658.621,645.874 655.955,645.54 653.5,644C 654.381,643.292 655.047,642.458 655.5,641.5 Z"/></g>
<g><path style="opacity:0.277" fill="#000000" d="M 437.5,648.5 C 445.5,648.5 453.5,648.5 461.5,648.5C 461.777,651.448 461.444,654.281 460.5,657C 455.833,657.333 451.167,657.667 446.5,658C 445.167,659 445.167,660 446.5,661C 450.486,661.499 454.486,661.666 458.5,661.5C 458.5,664.167 458.5,666.833 458.5,669.5C 454.445,669.176 450.445,669.509 446.5,670.5C 446.291,671.086 445.957,671.586 445.5,672C 449.985,673.274 454.652,673.941 459.5,674C 462.167,677.667 462.167,681.333 459.5,685C 452.131,685.726 444.798,685.559 437.5,684.5C 437.665,681.15 437.498,677.817 437,674.5C 434.431,683.219 428.597,686.886 419.5,685.5C 419.586,684.504 419.252,683.671 418.5,683C 417.128,682.598 415.795,682.098 414.5,681.5C 413.478,679.145 411.812,677.478 409.5,676.5C 409.777,679.448 409.444,682.281 408.5,685C 405.672,685.969 403.338,685.303 401.5,683C 400.207,682.51 398.873,682.343 397.5,682.5C 397.664,679.813 397.497,677.146 397,674.5C 396.311,673.643 395.478,672.977 394.5,672.5C 393.675,676.122 393.175,679.789 393,683.5C 390.243,685.965 387.41,685.965 384.5,683.5C 384.445,677.921 384.278,672.254 384,666.5C 382.676,670.796 381.509,675.129 380.5,679.5C 378.446,681.194 376.112,682.361 373.5,683C 372.748,683.671 372.414,684.504 372.5,685.5C 369.5,685.5 366.5,685.5 363.5,685.5C 363.586,684.504 363.252,683.671 362.5,683C 360.779,682.261 359.113,681.427 357.5,680.5C 356.863,678.697 355.697,677.364 354,676.5C 353.882,673.629 353.216,670.962 352,668.5C 351.333,669.167 350.667,669.833 350,670.5C 349.782,673.426 349.282,676.26 348.5,679C 348.833,679.333 349.167,679.667 349.5,680C 348.932,681.604 347.932,682.27 346.5,682C 345.54,678.27 345.207,674.437 345.5,670.5C 344.178,670.33 343.011,670.663 342,671.5C 342.456,674.553 342.622,677.553 342.5,680.5C 340.712,685.74 337.546,686.74 333,683.5C 332.18,671.924 332.346,660.424 333.5,649C 340.167,648.667 346.833,648.333 353.5,648C 354.996,644.919 356.663,644.753 358.5,647.5C 357.653,648.845 356.487,649.845 355,650.5C 354.219,651.944 354.386,653.277 355.5,654.5C 356.95,653.345 357.95,651.845 358.5,650C 361.919,649.479 365.252,648.645 368.5,647.5C 373.24,648.554 377.573,650.221 381.5,652.5C 381.178,656.747 382.011,660.747 384,664.5C 384.499,659.177 384.666,653.844 384.5,648.5C 393.118,647.958 401.451,648.958 409.5,651.5C 409.34,653.199 409.506,654.866 410,656.5C 413.179,650.604 418.179,647.604 425,647.5C 428.026,648.872 431.193,649.538 434.5,649.5C 434.784,652.777 434.451,655.943 433.5,659C 429.554,658.351 425.554,658.018 421.5,658C 417.279,661.822 416.446,666.322 419,671.5C 420.734,673.451 422.901,674.451 425.5,674.5C 425.55,672.41 424.55,671.077 422.5,670.5C 421.516,667.572 421.183,664.572 421.5,661.5C 425.24,661.759 428.906,661.426 432.5,660.5C 434.527,663.221 436.027,666.221 437,669.5C 437.5,662.508 437.666,655.508 437.5,648.5 Z M 341.5,657.5 C 345.5,658.833 349.5,658.833 353.5,657.5C 353.819,659.75 353.319,661.75 352,663.5C 349.036,660.363 345.536,659.697 341.5,661.5C 341.5,660.167 341.5,658.833 341.5,657.5 Z M 365.5,657.5 C 368.652,656.959 371.152,657.959 373,660.5C 373.667,664.167 373.667,667.833 373,671.5C 366.283,675.891 362.449,673.891 361.5,665.5C 362.424,662.591 363.757,659.924 365.5,657.5 Z M 393.5,657.5 C 397.419,656.746 398.753,658.08 397.5,661.5C 393.803,662.47 392.47,661.137 393.5,657.5 Z M 409.5,676.5 C 405.232,674.155 404.565,671.155 407.5,667.5C 409.129,670.266 409.795,673.266 409.5,676.5 Z"/></g>
<g><path style="opacity:0.005" fill="#000000" d="M 377.5,645.5 C 378.5,645.5 379.5,645.5 380.5,645.5C 380.762,646.978 380.429,648.311 379.5,649.5C 377.889,648.68 377.222,647.346 377.5,645.5 Z"/></g>
<g><path style="opacity:0.006" fill="#000000" d="M 411.5,645.5 C 412.995,645.415 413.995,646.081 414.5,647.5C 413.68,649.111 412.346,649.778 410.5,649.5C 410.433,648.041 410.766,646.708 411.5,645.5 Z"/></g>
<g><path style="opacity:0.004" fill="#000000" d="M 478.5,645.5 C 481.674,645.952 482.007,646.952 479.5,648.5C 477.481,647.867 477.147,646.867 478.5,645.5 Z"/></g>
<g><path style="opacity:0.275" fill="#000000" d="M 537.5,648.5 C 540.5,648.5 543.5,648.5 546.5,648.5C 546.653,659.521 546.32,670.521 545.5,681.5C 541.998,681.076 539.665,682.41 538.5,685.5C 535.482,685.665 532.482,685.498 529.5,685C 527.507,683.001 525.173,681.501 522.5,680.5C 521.775,676.468 520.942,672.468 520,668.5C 518.692,671.73 517.692,675.064 517,678.5C 512.562,683.658 507.062,685.825 500.5,685C 498.933,682.259 496.599,681.092 493.5,681.5C 493.824,678.306 492.658,677.306 490,678.5C 489.667,672.833 489.333,667.167 489,661.5C 488,663.167 487,664.833 486,666.5C 485.81,672.416 485.31,678.249 484.5,684C 480.909,684.789 477.409,684.622 474,683.5C 473.667,677.833 473.333,672.167 473,666.5C 472.184,665.177 471.017,664.511 469.5,664.5C 470.211,660.675 469.045,657.675 466,655.5C 465.503,653.19 465.337,650.857 465.5,648.5C 469.24,648.241 472.906,648.574 476.5,649.5C 477.044,652.714 478.044,655.714 479.5,658.5C 480.086,658.291 480.586,657.957 481,657.5C 481.497,654.854 481.664,652.187 481.5,649.5C 486.058,649.532 490.058,648.199 493.5,645.5C 493.754,647.913 493.754,650.246 493.5,652.5C 501.113,646.12 508.78,646.12 516.5,652.5C 517.142,656.059 518.309,659.393 520,662.5C 520.648,657.796 520.481,653.129 519.5,648.5C 522.833,648.5 526.167,648.5 529.5,648.5C 530.599,656.122 530.599,663.622 529.5,671C 529.645,671.772 529.978,672.439 530.5,673C 532.81,673.497 535.143,673.663 537.5,673.5C 537.5,665.167 537.5,656.833 537.5,648.5 Z M 500.5,661.5 C 500.33,660.178 500.663,659.011 501.5,658C 504.257,657.218 506.757,657.718 509,659.5C 509.799,664.087 509.632,668.587 508.5,673C 501.791,675.489 498.458,672.989 498.5,665.5C 498.34,663.645 499.007,662.312 500.5,661.5 Z"/></g>
<g><path style="opacity:0.004" fill="#000000" d="M 514.5,645.5 C 516.332,646.14 516.665,647.14 515.5,648.5C 514.614,647.675 514.281,646.675 514.5,645.5 Z"/></g>
<g><path style="opacity:0.007" fill="#000000" d="M 616.5,645.5 C 617.833,645.5 619.167,645.5 620.5,645.5C 620.5,646.833 620.5,648.167 620.5,649.5C 617.5,649.833 616.167,648.5 616.5,645.5 Z"/></g>
<g><path style="opacity:0.004" fill="#000000" d="M 405.5,646.5 C 407.337,646.639 407.67,647.306 406.5,648.5C 405.702,648.043 405.369,647.376 405.5,646.5 Z"/></g>
<g><path style="opacity:0.004" fill="#000000" d="M 437.5,648.5 C 435.972,648.483 435.472,647.816 436,646.5C 436.717,647.044 437.217,647.711 437.5,648.5 Z"/></g>
<g><path style="opacity:0.004" fill="#000000" d="M 537.5,648.5 C 535.663,648.361 535.33,647.694 536.5,646.5C 537.298,646.957 537.631,647.624 537.5,648.5 Z"/></g>
<g><path style="opacity:0.004" fill="#000000" d="M 594.5,646.5 C 597.001,646.511 597.168,647.178 595,648.5C 594.536,647.906 594.369,647.239 594.5,646.5 Z"/></g>
<g><path style="opacity:0.004" fill="#000000" d="M 650.5,647.5 C 650.897,646.475 651.563,646.308 652.5,647C 651.906,647.464 651.239,647.631 650.5,647.5 Z"/></g>
<g><path style="opacity:0.004" fill="#000000" d="M 645.5,647.5 C 646.833,648.167 646.833,648.167 645.5,647.5 Z"/></g>
<g><path style="opacity:0.298" fill="#000000" d="M 573.5,667.5 C 568.331,669.64 568.331,671.64 573.5,673.5C 573.071,677.459 574.071,680.959 576.5,684C 574.305,685.373 571.971,685.706 569.5,685C 566.84,684.134 564.673,682.634 563,680.5C 559.99,682.183 556.99,683.85 554,685.5C 552.667,684.833 551.333,684.167 550,683.5C 549.333,672.167 549.333,660.833 550,649.5C 552.578,648.859 555.245,648.525 558,648.5C 563.301,648.227 568.301,649.227 573,651.5C 573.499,656.823 573.666,662.156 573.5,667.5 Z M 559.5,657.5 C 561.977,657.051 563.977,657.717 565.5,659.5C 563.05,661.959 560.383,662.125 557.5,660C 558.381,659.292 559.047,658.458 559.5,657.5 Z M 558.5,672.5 C 559.496,672.414 560.329,672.748 561,673.5C 561.667,675.167 561.667,676.833 561,678.5C 558.961,677.022 558.128,675.022 558.5,672.5 Z"/></g>
<g><path style="opacity:0.273" fill="#000000" d="M 584.5,648.5 C 587.5,648.5 590.5,648.5 593.5,648.5C 593.832,660.518 593.499,672.518 592.5,684.5C 589.866,685.516 587.2,685.516 584.5,684.5C 584.5,672.5 584.5,660.5 584.5,648.5 Z"/></g>
<g><path style="opacity:0.266" fill="#000000" d="M 645.5,648.5 C 645.334,654.509 645.501,660.509 646,666.5C 647.385,665.449 648.385,664.116 649,662.5C 649.182,659.774 649.682,657.107 650.5,654.5C 651.935,653.176 652.935,651.51 653.5,649.5C 657.063,647.963 660.397,648.296 663.5,650.5C 665.022,653.64 665.855,656.973 666,660.5C 666.422,662.426 667.589,663.426 669.5,663.5C 669.335,666.518 669.502,669.518 670,672.5C 670.72,674.056 671.887,675.056 673.5,675.5C 675.146,684.37 671.979,687.036 664,683.5C 662.715,683.95 661.548,684.617 660.5,685.5C 649.012,685.203 637.345,685.036 625.5,685C 622.312,683.066 620.812,680.232 621,676.5C 619.303,677.364 618.137,678.697 617.5,680.5C 615.5,681.333 613.5,682.167 611.5,683C 610.748,683.671 610.414,684.504 610.5,685.5C 606.486,685.666 602.486,685.499 598.5,685C 598,684.5 597.5,684 597,683.5C 596.333,672.167 596.333,660.833 597,649.5C 606.362,646.914 614.362,648.914 621,655.5C 621.495,653.527 621.662,651.527 621.5,649.5C 629.458,648.597 637.458,648.264 645.5,648.5 Z M 605.5,657.5 C 613.23,659.434 615.397,664.101 612,671.5C 610.266,673.451 608.099,674.451 605.5,674.5C 605.892,668.68 605.892,663.013 605.5,657.5 Z M 633.5,657.5 C 637.375,657.085 641.042,657.585 644.5,659C 641.276,661.477 637.61,662.143 633.5,661C 632.316,659.855 632.316,658.688 633.5,657.5 Z M 643.5,667.5 C 644.725,668.152 645.392,669.319 645.5,671C 645.546,672.728 645.046,674.228 644,675.5C 642.414,674.624 640.914,673.624 639.5,672.5C 636.506,675.328 634.173,674.994 632.5,671.5C 633,670.119 634,669.453 635.5,669.5C 638.908,671.315 641.574,670.649 643.5,667.5 Z M 658.5,674.5 C 659.496,674.414 660.329,674.748 661,675.5C 661.497,677.81 661.663,680.143 661.5,682.5C 658.833,682.833 656.167,683.167 653.5,683.5C 653.337,681.143 653.503,678.81 654,676.5C 655,675.167 656,675.167 657,676.5C 657.717,675.956 658.217,675.289 658.5,674.5 Z"/></g>
<g><path style="opacity:0.214" fill="#000000" d="M 326.5,649.5 C 327.496,649.414 328.329,649.748 329,650.5C 329.5,661.161 329.667,671.828 329.5,682.5C 327.876,682.64 326.71,681.973 326,680.5C 325.502,677.183 325.335,673.85 325.5,670.5C 281.155,670.376 236.822,670.709 192.5,671.5C 186.262,671.361 184.262,668.361 186.5,662.5C 232.83,661.667 279.163,661.167 325.5,661C 326.535,659.493 326.368,657.993 325,656.5C 279.571,657.663 234.071,657.83 188.5,657C 187.185,655.605 187.519,654.605 189.5,654C 234.167,653.333 278.833,653.333 323.5,654C 324,654.5 324.5,655 325,655.5C 325.505,653.482 326.005,651.482 326.5,649.5 Z"/></g>
<g><path style="opacity:0.018" fill="#000000" d="M 577.5,672.5 C 577.571,665.695 577.738,658.695 578,651.5C 578.853,649.875 579.853,649.542 581,650.5C 581.5,661.161 581.667,671.828 581.5,682.5C 580.167,682.5 578.833,682.5 577.5,682.5C 577.5,679.167 577.5,675.833 577.5,672.5 Z"/></g>
<g><path style="opacity:0.004" fill="#000000" d="M 666.5,649.5 C 668.332,650.14 668.665,651.14 667.5,652.5C 665.481,651.867 665.147,650.867 666.5,649.5 Z"/></g>
<g><path style="opacity:0.009" fill="#000000" d="M 669.5,663.5 C 669.335,660.15 669.502,656.817 670,653.5C 670.667,652.833 671.333,652.167 672,651.5C 673.431,655.635 673.931,659.968 673.5,664.5C 672.041,664.567 670.708,664.234 669.5,663.5 Z"/></g>
<g><path style="opacity:0.019" fill="#000000" d="M 679.5,653.5 C 725.168,653.333 770.835,653.5 816.5,654C 817.833,655 817.833,656 816.5,657C 770.501,657.5 724.501,657.667 678.5,657.5C 678.433,656.041 678.766,654.708 679.5,653.5 Z"/></g>
<g><path style="opacity:0.011" fill="#000000" d="M 462.5,656.5 C 463.5,656.5 464.5,656.5 465.5,656.5C 465.664,659.187 465.497,661.854 465,664.5C 464.632,665.91 463.799,666.91 462.5,667.5C 461.242,663.79 461.242,660.123 462.5,656.5 Z"/></g>
<g><path style="opacity:0.311" fill="#000000" d="M 677.5,669.5 C 677.5,666.833 677.5,664.167 677.5,661.5C 724.168,661.667 770.835,661.5 817.5,661C 818.047,660.075 818.713,659.242 819.5,658.5C 819.833,659 820.167,659.5 820.5,660C 818.86,663.328 817.693,666.828 817,670.5C 814.422,671.141 811.755,671.475 809,671.5C 770.365,671.399 731.532,671.399 692.5,671.5C 687.349,671.606 682.349,670.94 677.5,669.5 Z"/></g>
<g><path style="opacity:0.004" fill="#000000" d="M 676.5,659.5 C 677.833,660.167 677.833,660.167 676.5,659.5 Z"/></g>
<g><path style="opacity:0.042" fill="#000000" d="M 366.5,660.5 C 367.496,660.414 368.329,660.748 369,661.5C 369.498,664.482 369.665,667.482 369.5,670.5C 368.178,670.67 367.011,670.337 366,669.5C 365.264,666.408 365.431,663.408 366.5,660.5 Z"/></g>
<g><path style="opacity:0.036" fill="#000000" d="M 500.5,661.5 C 502.167,661.5 503.833,661.5 505.5,661.5C 505.5,664.5 505.5,667.5 505.5,670.5C 503.319,670.716 501.653,669.883 500.5,668C 501.605,665.88 501.605,663.713 500.5,661.5 Z"/></g>
<g><path style="opacity:0.007" fill="#000000" d="M 608.5,661.5 C 610.973,661.947 611.14,662.947 609,664.5C 608.517,663.552 608.351,662.552 608.5,661.5 Z"/></g>
<g><path style="opacity:0.007" fill="#000000" d="M 821.5,662.5 C 822.833,662.5 824.167,662.5 825.5,662.5C 825.662,664.527 825.495,666.527 825,668.5C 823.989,669.337 822.822,669.67 821.5,669.5C 821.5,667.167 821.5,664.833 821.5,662.5 Z"/></g>
<g><path style="opacity:0.004" fill="#000000" d="M 178.5,663.5 C 179.598,664.601 179.765,665.934 179,667.5C 178.51,666.207 178.343,664.873 178.5,663.5 Z"/></g>
<g><path style="opacity:0.01" fill="#000000" d="M 469.5,664.5 C 469.666,670.509 469.499,676.509 469,682.5C 467.605,683.815 466.605,683.481 466,681.5C 465.333,676.167 465.333,670.833 466,665.5C 467.011,664.663 468.178,664.33 469.5,664.5 Z"/></g>
<g><path style="opacity:0.007" fill="#000000" d="M 532.5,665.5 C 534.852,666.543 535.019,667.876 533,669.5C 532.51,668.207 532.343,666.873 532.5,665.5 Z"/></g>
<g><path style="opacity:0.012" fill="#000000" d="M 608.5,666.5 C 610.465,666.948 610.798,667.948 609.5,669.5C 608.614,668.675 608.281,667.675 608.5,666.5 Z"/></g>
<g><path style="opacity:0.012" fill="#000000" d="M 677.5,669.5 C 678.401,673.241 677.068,675.241 673.5,675.5C 673.335,672.482 673.502,669.482 674,666.5C 675.039,667.71 676.206,668.71 677.5,669.5 Z"/></g>
<g><path style="opacity:0.013" fill="#000000" d="M 573.5,667.5 C 576.91,667.384 578.244,669.05 577.5,672.5C 576.292,673.234 574.959,673.567 573.5,673.5C 573.5,671.5 573.5,669.5 573.5,667.5 Z"/></g>
<g><path style="opacity:0.009" fill="#000000" d="M 189.5,673.5 C 234.644,673.006 279.644,673.506 324.5,675C 323.667,675.833 322.833,676.667 322,677.5C 278.98,677.651 235.814,677.484 192.5,677C 189.553,676.925 188.553,675.758 189.5,673.5 Z"/></g>
<g><path style="opacity:0.009" fill="#000000" d="M 679.5,673.5 C 725.072,673.17 770.572,673.503 816,674.5C 816.167,674.833 816.333,675.167 816.5,675.5C 815.624,676.251 814.624,676.751 813.5,677C 769.471,677.818 725.471,677.651 681.5,676.5C 681.66,678.199 681.494,679.866 681,681.5C 680,682.833 679,682.833 678,681.5C 677.109,678.502 677.609,675.836 679.5,673.5 Z"/></g>
<g><path style="opacity:0.007" fill="#000000" d="M 350.5,677.5 C 351.5,677.5 352.5,677.5 353.5,677.5C 352.5,682.833 351.5,682.833 350.5,677.5 Z"/></g>
<g><path style="opacity:0.006" fill="#000000" d="M 493.5,681.5 C 493.5,682.833 493.5,684.167 493.5,685.5C 489.775,685.22 488.608,683.22 490,679.5C 490.816,680.823 491.983,681.489 493.5,681.5 Z"/></g>
<g><path style="opacity:0.006" fill="#000000" d="M 517.5,680.5 C 521.161,680.35 522.161,681.85 520.5,685C 519.551,685.617 518.718,685.451 518,684.5C 517.51,683.207 517.343,681.873 517.5,680.5 Z"/></g>
<g><path style="opacity:0.005" fill="#000000" d="M 354.5,681.5 C 356.912,681.694 357.912,683.027 357.5,685.5C 354.046,685.733 353.046,684.4 354.5,681.5 Z"/></g>
<g><path style="opacity:0.005" fill="#000000" d="M 618.5,681.5 C 619.995,681.415 620.995,682.081 621.5,683.5C 620.68,685.111 619.346,685.778 617.5,685.5C 617.433,684.041 617.766,682.708 618.5,681.5 Z"/></g>
<g><path style="opacity:0.004" fill="#000000" d="M 545.5,682.5 C 547.983,682.73 548.483,683.397 547,684.5C 545.97,684.164 545.47,683.497 545.5,682.5 Z"/></g>
<g><path style="opacity:0.004" fill="#000000" d="M 395.5,684.5 C 396.077,683.227 396.743,683.227 397.5,684.5C 397.03,685.463 396.363,685.463 395.5,684.5 Z"/></g>
<g><path style="opacity:0.004" fill="#000000" d="M 411.5,683.5 C 412.833,684.167 412.833,684.167 411.5,683.5 Z"/></g>
<g><path style="opacity:0.008" fill="#000000" d="M 363.5,685.5 C 363.5,686.833 363.5,688.167 363.5,689.5C 361.5,689.5 359.5,689.5 357.5,689.5C 357.759,685.932 359.759,684.599 363.5,685.5 Z"/></g>
<g><path style="opacity:0.007" fill="#000000" d="M 372.5,685.5 C 375.346,685.03 377.679,685.863 379.5,688C 377.728,689.487 375.728,689.82 373.5,689C 372.663,687.989 372.33,686.822 372.5,685.5 Z"/></g>
<g><path style="opacity:0.005" fill="#000000" d="M 399.5,685.5 C 402.166,685.066 403.333,686.066 403,688.5C 399.403,690.066 398.237,689.066 399.5,685.5 Z"/></g>
<g><path style="opacity:0.009" fill="#000000" d="M 419.5,685.5 C 419.67,686.822 419.337,687.989 418.5,689C 416.272,689.82 414.272,689.487 412.5,688C 414.321,685.863 416.654,685.03 419.5,685.5 Z"/></g>
<g><path style="opacity:0.006" fill="#000000" d="M 430.5,685.5 C 432.977,685.051 434.977,685.717 436.5,687.5C 434.809,689.256 432.809,689.756 430.5,689C 429.316,687.855 429.316,686.688 430.5,685.5 Z"/></g>
<g><path style="opacity:0.009" fill="#000000" d="M 494.5,685.5 C 496.167,685.5 497.833,685.5 499.5,685.5C 499.5,686.833 499.5,688.167 499.5,689.5C 497.801,689.66 496.134,689.494 494.5,689C 493.829,688.014 493.829,686.847 494.5,685.5 Z"/></g>
<g><path style="opacity:0.007" fill="#000000" d="M 509.5,685.5 C 512.346,685.03 514.679,685.863 516.5,688C 514.317,689.694 511.984,689.861 509.5,688.5C 508.209,687.473 508.209,686.473 509.5,685.5 Z"/></g>
<g><path style="opacity:0.007" fill="#000000" d="M 523.5,685.5 C 525.167,685.5 526.833,685.5 528.5,685.5C 528.5,686.833 528.5,688.167 528.5,689.5C 526.801,689.66 525.134,689.494 523.5,689C 522.316,687.855 522.316,686.688 523.5,685.5 Z"/></g>
<g><path style="opacity:0.007" fill="#000000" d="M 538.5,685.5 C 542.241,684.599 544.241,685.932 544.5,689.5C 540.759,690.401 538.759,689.068 538.5,685.5 Z"/></g>
<g><path style="opacity:0.009" fill="#000000" d="M 610.5,685.5 C 612.527,685.338 614.527,685.505 616.5,686C 617.337,687.011 617.67,688.178 617.5,689.5C 615.473,689.662 613.473,689.495 611.5,689C 610.663,687.989 610.33,686.822 610.5,685.5 Z"/></g>
<g><path style="opacity:0.004" fill="#000000" d="M 563.5,686.5 C 565.288,686.215 566.955,686.548 568.5,687.5C 566.039,690.423 564.372,690.089 563.5,686.5 Z"/></g>
<g><path style="opacity:0.004" fill="#000000" d="M 622.5,687.5 C 622.897,686.475 623.563,686.308 624.5,687C 623.906,687.464 623.239,687.631 622.5,687.5 Z"/></g>
<g><path style="opacity:0.004" fill="#000000" d="M 647.5,686.5 C 648.978,686.238 650.311,686.571 651.5,687.5C 649.537,690.194 648.203,689.861 647.5,686.5 Z"/></g>
<g><path style="opacity:0.004" fill="#000000" d="M 663.5,686.5 C 664.978,686.238 666.311,686.571 667.5,687.5C 665.537,690.194 664.203,689.861 663.5,686.5 Z"/></g>
<g><path style="opacity:0.004" fill="#000000" d="M 387.5,688.5 C 388.251,687.427 389.251,687.26 390.5,688C 389.552,688.483 388.552,688.649 387.5,688.5 Z"/></g>
<g><path style="opacity:0.004" fill="#000000" d="M 551.5,688.5 C 552.251,687.427 553.251,687.26 554.5,688C 553.552,688.483 552.552,688.649 551.5,688.5 Z"/></g>
<g><path style="opacity:0.007" fill="#000000" d="M 364.5,689.5 C 367.983,688.916 370.983,689.749 373.5,692C 370.381,693.405 367.048,693.905 363.5,693.5C 363.433,692.041 363.766,690.708 364.5,689.5 Z"/></g>
<g><path style="opacity:0.004" fill="#000000" d="M 405.5,689.5 C 409.466,691.02 409.3,692.353 405,693.5C 403.07,691.923 403.237,690.59 405.5,689.5 Z"/></g>
<g><path style="opacity:0.008" fill="#000000" d="M 420.5,689.5 C 424.302,688.88 427.635,689.714 430.5,692C 426.5,694 422.5,694 418.5,692C 419.381,691.292 420.047,690.458 420.5,689.5 Z"/></g>
<g><path style="opacity:0.006" fill="#000000" d="M 443.5,689.5 C 448.959,689.103 454.292,689.603 459.5,691C 458.672,691.915 457.672,692.581 456.5,693C 451.5,693.667 446.5,693.667 441.5,693C 441.167,692.667 440.833,692.333 440.5,692C 441.571,691.148 442.571,690.315 443.5,689.5 Z"/></g>
<g><path style="opacity:0.007" fill="#000000" d="M 500.5,689.5 C 503.187,689.336 505.854,689.503 508.5,690C 509.337,691.011 509.67,692.178 509.5,693.5C 506.482,693.665 503.482,693.498 500.5,693C 499.316,691.855 499.316,690.688 500.5,689.5 Z"/></g>
<g><path style="opacity:0.008" fill="#000000" d="M 529.5,689.5 C 532.187,689.336 534.854,689.503 537.5,690C 538.337,691.011 538.67,692.178 538.5,693.5C 535.167,693.5 531.833,693.5 528.5,693.5C 528.433,692.041 528.766,690.708 529.5,689.5 Z"/></g>
<g><path style="opacity:0.006" fill="#000000" d="M 602.5,689.5 C 605.983,688.916 608.983,689.749 611.5,692C 607.23,693.946 602.897,693.946 598.5,692C 600.066,691.392 601.4,690.558 602.5,689.5 Z"/></g>
<g><path style="opacity:0.006" fill="#000000" d="M 629.5,689.5 C 634.511,689.334 639.511,689.501 644.5,690C 647.001,691.418 646.668,692.418 643.5,693C 638.167,693.667 632.833,693.667 627.5,693C 627.043,692.586 626.709,692.086 626.5,691.5C 627.602,690.824 628.602,690.158 629.5,689.5 Z"/></g>
<g><path style="opacity:0.004" fill="#000000" d="M 568.5,690.5 C 572.701,690.442 573.201,691.442 570,693.5C 567.842,692.95 567.342,691.95 568.5,690.5 Z"/></g>
<g><path style="opacity:0.004" fill="#000000" d="M 668.5,690.5 C 672.276,690.469 672.443,691.136 669,692.5C 667.316,692.317 667.15,691.65 668.5,690.5 Z"/></g>
<g><path style="opacity:0.004" fill="#000000" d="M 335.5,692.5 C 336.601,691.402 337.934,691.235 339.5,692C 338.207,692.49 336.873,692.657 335.5,692.5 Z"/></g>
<g><path style="opacity:0.004" fill="#000000" d="M 388.5,692.5 C 388.897,691.475 389.563,691.308 390.5,692C 389.906,692.464 389.239,692.631 388.5,692.5 Z"/></g>
<g><path style="opacity:0.004" fill="#000000" d="M 552.5,692.5 C 552.897,691.475 553.563,691.308 554.5,692C 553.906,692.464 553.239,692.631 552.5,692.5 Z"/></g>
<g><path style="opacity:0.004" fill="#000000" d="M 587.5,692.5 C 588.601,691.402 589.934,691.235 591.5,692C 590.207,692.49 588.873,692.657 587.5,692.5 Z"/></g>
</svg>
